<mxfile host="65bd71144e">
    <diagram name="Page-1" id="qdGLptNiEYju2FoVlZxs">
        <mxGraphModel dx="5975" dy="4316" grid="1" gridSize="10" guides="1" tooltips="1" connect="1" arrows="1" fold="1" page="1" pageScale="1" pageWidth="4681" pageHeight="3300" math="0" shadow="0">
            <root>
                <mxCell id="0"/>
                <mxCell id="1" parent="0"/>
                <mxCell id="0Wyq9TKgrHh_EbbWzSWt-405" value="&lt;h1&gt;WB STAGE&lt;br&gt;&lt;/h1&gt;" style="rounded=1;whiteSpace=wrap;html=1;labelPosition=center;verticalLabelPosition=top;align=center;verticalAlign=bottom;arcSize=8;fillColor=#6d8764;fontColor=#ffffff;strokeColor=#3A5431;" parent="1" vertex="1">
                    <mxGeometry x="4850" y="-530" width="570" height="1365" as="geometry"/>
                </mxCell>
                <mxCell id="0Wyq9TKgrHh_EbbWzSWt-364" value="&lt;h1&gt;MEM STAGE&lt;br&gt;&lt;/h1&gt;" style="rounded=1;whiteSpace=wrap;html=1;labelPosition=center;verticalLabelPosition=top;align=center;verticalAlign=bottom;arcSize=8;fillColor=#a20025;fontColor=#ffffff;strokeColor=#6F0000;" parent="1" vertex="1">
                    <mxGeometry x="3630" y="-520" width="900" height="1345" as="geometry"/>
                </mxCell>
                <mxCell id="0Wyq9TKgrHh_EbbWzSWt-182" value="&lt;h1&gt;DECODE STAGE&lt;/h1&gt;" style="rounded=1;whiteSpace=wrap;html=1;labelPosition=center;verticalLabelPosition=top;align=center;verticalAlign=bottom;arcSize=8;fillColor=#76608a;fontColor=#ffffff;strokeColor=#432D57;" parent="1" vertex="1">
                    <mxGeometry x="510" y="-510" width="1480" height="1300" as="geometry"/>
                </mxCell>
                <mxCell id="0Wyq9TKgrHh_EbbWzSWt-134" value="&lt;h1&gt;FETCH STAGE&lt;/h1&gt;" style="rounded=1;whiteSpace=wrap;html=1;labelPosition=center;verticalLabelPosition=top;align=center;verticalAlign=bottom;arcSize=8;fillColor=#a0522d;strokeColor=#6D1F00;fontColor=#ffffff;" parent="1" vertex="1">
                    <mxGeometry x="-275" y="-510" width="450" height="820" as="geometry"/>
                </mxCell>
                <mxCell id="0Wyq9TKgrHh_EbbWzSWt-125" value="" style="group" parent="1" vertex="1" connectable="0">
                    <mxGeometry x="-140" y="-20" width="190" height="140" as="geometry"/>
                </mxCell>
                <mxCell id="0Wyq9TKgrHh_EbbWzSWt-115" value="&lt;b&gt;PC&lt;/b&gt;" style="rounded=1;whiteSpace=wrap;html=1;" parent="0Wyq9TKgrHh_EbbWzSWt-125" vertex="1">
                    <mxGeometry x="10" width="170" height="140" as="geometry"/>
                </mxCell>
                <mxCell id="0Wyq9TKgrHh_EbbWzSWt-116" value="&lt;div&gt;new_pc&lt;/div&gt;" style="html=1;shadow=0;dashed=0;align=left;verticalAlign=middle;shape=mxgraph.arrows2.arrow;dy=0;dx=10;notch=0;labelPosition=right;verticalLabelPosition=middle;spacing=5;movable=1;resizable=1;rotatable=1;deletable=1;editable=1;locked=0;connectable=1;" parent="0Wyq9TKgrHh_EbbWzSWt-125" vertex="1">
                    <mxGeometry y="20" width="20" height="10" as="geometry"/>
                </mxCell>
                <mxCell id="0Wyq9TKgrHh_EbbWzSWt-117" value="new_pc_pred" style="html=1;shadow=0;dashed=0;align=left;verticalAlign=middle;shape=mxgraph.arrows2.arrow;dy=0;dx=10;notch=0;labelPosition=right;verticalLabelPosition=middle;spacing=5;movable=1;resizable=1;rotatable=1;deletable=1;editable=1;locked=0;connectable=1;" parent="0Wyq9TKgrHh_EbbWzSWt-125" vertex="1">
                    <mxGeometry y="40" width="20" height="10" as="geometry"/>
                </mxCell>
                <mxCell id="0Wyq9TKgrHh_EbbWzSWt-118" value="br_pred" style="html=1;shadow=0;dashed=0;align=left;verticalAlign=middle;shape=mxgraph.arrows2.arrow;dy=0;dx=10;notch=0;labelPosition=right;verticalLabelPosition=middle;spacing=5;movable=1;resizable=1;rotatable=1;deletable=1;editable=1;locked=0;connectable=1;" parent="0Wyq9TKgrHh_EbbWzSWt-125" vertex="1">
                    <mxGeometry y="60" width="20" height="10" as="geometry"/>
                </mxCell>
                <mxCell id="0Wyq9TKgrHh_EbbWzSWt-119" value="miss_pred" style="html=1;shadow=0;dashed=0;align=left;verticalAlign=middle;shape=mxgraph.arrows2.arrow;dy=0;dx=10;notch=0;labelPosition=right;verticalLabelPosition=middle;spacing=5;movable=1;resizable=1;rotatable=1;deletable=1;editable=1;locked=0;connectable=1;" parent="0Wyq9TKgrHh_EbbWzSWt-125" vertex="1">
                    <mxGeometry y="80" width="20" height="10" as="geometry"/>
                </mxCell>
                <mxCell id="0Wyq9TKgrHh_EbbWzSWt-120" value="stall" style="html=1;shadow=0;dashed=0;align=left;verticalAlign=middle;shape=mxgraph.arrows2.arrow;dy=0;dx=10;notch=0;labelPosition=right;verticalLabelPosition=middle;spacing=5;movable=1;resizable=1;rotatable=1;deletable=1;editable=1;locked=0;connectable=1;" parent="0Wyq9TKgrHh_EbbWzSWt-125" vertex="1">
                    <mxGeometry y="100" width="20" height="10" as="geometry"/>
                </mxCell>
                <mxCell id="0Wyq9TKgrHh_EbbWzSWt-121" value="&lt;div&gt;pc&lt;/div&gt;" style="html=1;shadow=0;dashed=0;align=right;verticalAlign=middle;shape=mxgraph.arrows2.arrow;dy=0;dx=10;notch=0;labelPosition=left;verticalLabelPosition=middle;spacing=5;movable=1;resizable=1;rotatable=1;deletable=1;editable=1;locked=0;connectable=1;" parent="0Wyq9TKgrHh_EbbWzSWt-125" vertex="1">
                    <mxGeometry x="170" y="20" width="20" height="10" as="geometry"/>
                </mxCell>
                <mxCell id="0Wyq9TKgrHh_EbbWzSWt-132" style="edgeStyle=orthogonalEdgeStyle;rounded=0;orthogonalLoop=1;jettySize=auto;html=1;exitX=1;exitY=0.5;exitDx=0;exitDy=0;exitPerimeter=0;entryX=0;entryY=0.5;entryDx=0;entryDy=0;entryPerimeter=0;" parent="1" source="0Wyq9TKgrHh_EbbWzSWt-105" target="0Wyq9TKgrHh_EbbWzSWt-117" edge="1">
                    <mxGeometry relative="1" as="geometry">
                        <Array as="points">
                            <mxPoint x="90" y="-375"/>
                            <mxPoint x="90" y="-90"/>
                            <mxPoint x="-160" y="-90"/>
                            <mxPoint x="-160" y="25"/>
                        </Array>
                    </mxGeometry>
                </mxCell>
                <mxCell id="0Wyq9TKgrHh_EbbWzSWt-133" style="edgeStyle=orthogonalEdgeStyle;rounded=0;orthogonalLoop=1;jettySize=auto;html=1;exitX=1;exitY=0.5;exitDx=0;exitDy=0;exitPerimeter=0;entryX=0;entryY=0.5;entryDx=0;entryDy=0;entryPerimeter=0;" parent="1" source="0Wyq9TKgrHh_EbbWzSWt-104" target="0Wyq9TKgrHh_EbbWzSWt-118" edge="1">
                    <mxGeometry relative="1" as="geometry">
                        <Array as="points">
                            <mxPoint x="110" y="-355"/>
                            <mxPoint x="110" y="-100"/>
                            <mxPoint x="-170" y="-100"/>
                            <mxPoint x="-170" y="45"/>
                        </Array>
                    </mxGeometry>
                </mxCell>
                <mxCell id="0Wyq9TKgrHh_EbbWzSWt-138" style="edgeStyle=orthogonalEdgeStyle;rounded=0;orthogonalLoop=1;jettySize=auto;html=1;entryX=0;entryY=0.5;entryDx=0;entryDy=0;entryPerimeter=0;" parent="1" source="0Wyq9TKgrHh_EbbWzSWt-136" target="0Wyq9TKgrHh_EbbWzSWt-103" edge="1">
                    <mxGeometry relative="1" as="geometry"/>
                </mxCell>
                <mxCell id="0Wyq9TKgrHh_EbbWzSWt-231" style="edgeStyle=orthogonalEdgeStyle;rounded=0;orthogonalLoop=1;jettySize=auto;html=1;entryX=0;entryY=0.5;entryDx=0;entryDy=0;entryPerimeter=0;" parent="1" source="0Wyq9TKgrHh_EbbWzSWt-136" target="0Wyq9TKgrHh_EbbWzSWt-228" edge="1">
                    <mxGeometry relative="1" as="geometry">
                        <Array as="points">
                            <mxPoint x="-220" y="840"/>
                            <mxPoint x="2225" y="840"/>
                        </Array>
                    </mxGeometry>
                </mxCell>
                <mxCell id="0Wyq9TKgrHh_EbbWzSWt-248" style="edgeStyle=orthogonalEdgeStyle;rounded=0;orthogonalLoop=1;jettySize=auto;html=1;entryX=0;entryY=0.5;entryDx=0;entryDy=0;entryPerimeter=0;" parent="1" source="0Wyq9TKgrHh_EbbWzSWt-136" target="0Wyq9TKgrHh_EbbWzSWt-146" edge="1">
                    <mxGeometry relative="1" as="geometry">
                        <Array as="points">
                            <mxPoint x="-220" y="340"/>
                            <mxPoint x="335" y="340"/>
                        </Array>
                    </mxGeometry>
                </mxCell>
                <mxCell id="0Wyq9TKgrHh_EbbWzSWt-250" style="edgeStyle=orthogonalEdgeStyle;rounded=0;orthogonalLoop=1;jettySize=auto;html=1;entryX=0;entryY=0.5;entryDx=0;entryDy=0;entryPerimeter=0;" parent="1" source="0Wyq9TKgrHh_EbbWzSWt-136" target="0Wyq9TKgrHh_EbbWzSWt-119" edge="1">
                    <mxGeometry relative="1" as="geometry">
                        <Array as="points">
                            <mxPoint x="-220" y="65"/>
                        </Array>
                    </mxGeometry>
                </mxCell>
                <mxCell id="0Wyq9TKgrHh_EbbWzSWt-302" style="edgeStyle=orthogonalEdgeStyle;rounded=0;orthogonalLoop=1;jettySize=auto;html=1;entryX=0;entryY=0.5;entryDx=0;entryDy=0;entryPerimeter=0;" parent="1" source="0Wyq9TKgrHh_EbbWzSWt-136" target="0Wyq9TKgrHh_EbbWzSWt-301" edge="1">
                    <mxGeometry relative="1" as="geometry">
                        <Array as="points">
                            <mxPoint x="-220" y="1000"/>
                            <mxPoint x="3470" y="1000"/>
                        </Array>
                    </mxGeometry>
                </mxCell>
                <mxCell id="0Wyq9TKgrHh_EbbWzSWt-136" value="miss_pred" style="shape=tape;whiteSpace=wrap;html=1;spacing=5;labelPosition=center;verticalLabelPosition=top;align=center;verticalAlign=bottom;" parent="1" vertex="1">
                    <mxGeometry x="-230" y="-420" width="20" height="20" as="geometry"/>
                </mxCell>
                <mxCell id="0Wyq9TKgrHh_EbbWzSWt-140" style="edgeStyle=orthogonalEdgeStyle;rounded=0;orthogonalLoop=1;jettySize=auto;html=1;exitX=1;exitY=0.5;exitDx=0;exitDy=0;exitPerimeter=0;entryX=0;entryY=0.5;entryDx=0;entryDy=0;entryPerimeter=0;" parent="1" source="0Wyq9TKgrHh_EbbWzSWt-121" target="0Wyq9TKgrHh_EbbWzSWt-101" edge="1">
                    <mxGeometry relative="1" as="geometry">
                        <Array as="points">
                            <mxPoint x="80" y="5"/>
                            <mxPoint x="80" y="-130"/>
                            <mxPoint x="-170" y="-130"/>
                            <mxPoint x="-170" y="-355"/>
                        </Array>
                    </mxGeometry>
                </mxCell>
                <mxCell id="0Wyq9TKgrHh_EbbWzSWt-144" style="edgeStyle=orthogonalEdgeStyle;rounded=0;orthogonalLoop=1;jettySize=auto;html=1;entryX=0;entryY=0.5;entryDx=0;entryDy=0;entryPerimeter=0;" parent="1" source="0Wyq9TKgrHh_EbbWzSWt-141" target="0Wyq9TKgrHh_EbbWzSWt-100" edge="1">
                    <mxGeometry relative="1" as="geometry"/>
                </mxCell>
                <mxCell id="0Wyq9TKgrHh_EbbWzSWt-143" style="edgeStyle=orthogonalEdgeStyle;rounded=0;orthogonalLoop=1;jettySize=auto;html=1;exitX=1;exitY=0.5;exitDx=0;exitDy=0;exitPerimeter=0;entryX=0;entryY=0.5;entryDx=0;entryDy=0;entryPerimeter=0;" parent="1" source="0Wyq9TKgrHh_EbbWzSWt-121" target="0Wyq9TKgrHh_EbbWzSWt-142" edge="1">
                    <mxGeometry relative="1" as="geometry">
                        <Array as="points">
                            <mxPoint x="80" y="5"/>
                            <mxPoint x="80" y="340"/>
                            <mxPoint x="-450" y="340"/>
                        </Array>
                    </mxGeometry>
                </mxCell>
                <mxCell id="0Wyq9TKgrHh_EbbWzSWt-145" value="&lt;b&gt;IF_ID REGISTER&lt;/b&gt;" style="rounded=1;whiteSpace=wrap;html=1;arcSize=8;" parent="1" vertex="1">
                    <mxGeometry x="280" y="-510" width="190" height="820" as="geometry"/>
                </mxCell>
                <mxCell id="0Wyq9TKgrHh_EbbWzSWt-146" value="flush" style="html=1;shadow=0;dashed=0;align=center;verticalAlign=bottom;shape=mxgraph.arrows2.arrow;dy=0;dx=10;notch=0;labelPosition=center;verticalLabelPosition=top;spacing=5;movable=1;resizable=1;rotatable=1;deletable=1;editable=1;locked=0;connectable=1;direction=north;" parent="1" vertex="1">
                    <mxGeometry x="330" y="300" width="10" height="20" as="geometry"/>
                </mxCell>
                <mxCell id="0Wyq9TKgrHh_EbbWzSWt-147" value="" style="group" parent="1" vertex="1" connectable="0">
                    <mxGeometry x="-510" y="-510" width="130" height="830" as="geometry"/>
                </mxCell>
                <mxCell id="0Wyq9TKgrHh_EbbWzSWt-124" value="&lt;b&gt;ROM&lt;/b&gt;" style="rounded=1;whiteSpace=wrap;html=1;" parent="0Wyq9TKgrHh_EbbWzSWt-147" vertex="1">
                    <mxGeometry width="120" height="820" as="geometry"/>
                </mxCell>
                <mxCell id="0Wyq9TKgrHh_EbbWzSWt-141" value="instruction" style="html=1;shadow=0;dashed=0;align=right;verticalAlign=middle;shape=mxgraph.arrows2.arrow;dy=0;dx=10;notch=0;labelPosition=left;verticalLabelPosition=middle;spacing=5;movable=1;resizable=1;rotatable=1;deletable=1;editable=1;locked=0;connectable=1;container=0;direction=east;" parent="0Wyq9TKgrHh_EbbWzSWt-147" vertex="1">
                    <mxGeometry x="110" y="130" width="20" height="10" as="geometry"/>
                </mxCell>
                <mxCell id="0Wyq9TKgrHh_EbbWzSWt-142" value="&lt;div&gt;pc&lt;/div&gt;" style="html=1;shadow=0;dashed=0;align=center;verticalAlign=bottom;shape=mxgraph.arrows2.arrow;dy=0;dx=10;notch=0;labelPosition=center;verticalLabelPosition=top;spacing=5;movable=1;resizable=1;rotatable=1;deletable=1;editable=1;locked=0;connectable=1;direction=north;" parent="0Wyq9TKgrHh_EbbWzSWt-147" vertex="1">
                    <mxGeometry x="55" y="810" width="10" height="20" as="geometry"/>
                </mxCell>
                <mxCell id="0Wyq9TKgrHh_EbbWzSWt-150" value="instruction" style="html=1;shadow=0;dashed=0;align=left;verticalAlign=middle;shape=mxgraph.arrows2.arrow;dy=0;dx=10;notch=0;labelPosition=right;verticalLabelPosition=middle;spacing=5;movable=1;resizable=1;rotatable=1;deletable=1;editable=1;locked=0;connectable=1;container=0;" parent="1" vertex="1">
                    <mxGeometry x="270" y="-380" width="20" height="10" as="geometry"/>
                </mxCell>
                <mxCell id="0Wyq9TKgrHh_EbbWzSWt-151" style="edgeStyle=orthogonalEdgeStyle;rounded=0;orthogonalLoop=1;jettySize=auto;html=1;exitX=1;exitY=0.5;exitDx=0;exitDy=0;exitPerimeter=0;entryX=0;entryY=0.5;entryDx=0;entryDy=0;entryPerimeter=0;" parent="1" source="0Wyq9TKgrHh_EbbWzSWt-141" target="0Wyq9TKgrHh_EbbWzSWt-150" edge="1">
                    <mxGeometry relative="1" as="geometry">
                        <Array as="points">
                            <mxPoint x="-380" y="-530"/>
                            <mxPoint x="250" y="-530"/>
                            <mxPoint x="250" y="-375"/>
                        </Array>
                    </mxGeometry>
                </mxCell>
                <mxCell id="0Wyq9TKgrHh_EbbWzSWt-152" value="&lt;div&gt;pc&lt;/div&gt;" style="html=1;shadow=0;dashed=0;align=left;verticalAlign=middle;shape=mxgraph.arrows2.arrow;dy=0;dx=10;notch=0;labelPosition=right;verticalLabelPosition=middle;spacing=5;movable=1;resizable=1;rotatable=1;deletable=1;editable=1;locked=0;connectable=1;container=0;" parent="1" vertex="1">
                    <mxGeometry x="270" width="20" height="10" as="geometry"/>
                </mxCell>
                <mxCell id="0Wyq9TKgrHh_EbbWzSWt-153" style="edgeStyle=orthogonalEdgeStyle;rounded=0;orthogonalLoop=1;jettySize=auto;html=1;entryX=0;entryY=0.5;entryDx=0;entryDy=0;entryPerimeter=0;" parent="1" source="0Wyq9TKgrHh_EbbWzSWt-121" target="0Wyq9TKgrHh_EbbWzSWt-152" edge="1">
                    <mxGeometry relative="1" as="geometry"/>
                </mxCell>
                <mxCell id="0Wyq9TKgrHh_EbbWzSWt-154" value="br_pred" style="html=1;shadow=0;dashed=0;align=left;verticalAlign=middle;shape=mxgraph.arrows2.arrow;dy=0;dx=10;notch=0;labelPosition=right;verticalLabelPosition=middle;spacing=5;movable=1;resizable=1;rotatable=1;deletable=1;editable=1;locked=0;connectable=1;container=0;" parent="1" vertex="1">
                    <mxGeometry x="270" y="-360" width="20" height="10" as="geometry"/>
                </mxCell>
                <mxCell id="0Wyq9TKgrHh_EbbWzSWt-155" style="edgeStyle=orthogonalEdgeStyle;rounded=0;orthogonalLoop=1;jettySize=auto;html=1;entryX=0;entryY=0.5;entryDx=0;entryDy=0;entryPerimeter=0;" parent="1" source="0Wyq9TKgrHh_EbbWzSWt-104" target="0Wyq9TKgrHh_EbbWzSWt-154" edge="1">
                    <mxGeometry relative="1" as="geometry"/>
                </mxCell>
                <mxCell id="0Wyq9TKgrHh_EbbWzSWt-158" value="&lt;div&gt;stall&lt;/div&gt;" style="html=1;shadow=0;dashed=0;align=center;verticalAlign=bottom;shape=mxgraph.arrows2.arrow;dy=0;dx=10;notch=0;labelPosition=center;verticalLabelPosition=top;spacing=5;movable=1;resizable=1;rotatable=1;deletable=1;editable=1;locked=0;connectable=1;direction=north;" parent="1" vertex="1">
                    <mxGeometry x="400" y="300" width="10" height="20" as="geometry"/>
                </mxCell>
                <mxCell id="0Wyq9TKgrHh_EbbWzSWt-159" value="instruction" style="html=1;shadow=0;dashed=0;align=right;verticalAlign=middle;shape=mxgraph.arrows2.arrow;dy=0;dx=10;notch=0;labelPosition=left;verticalLabelPosition=middle;spacing=5;movable=1;resizable=1;rotatable=1;deletable=1;editable=1;locked=0;connectable=1;container=0;" parent="1" vertex="1">
                    <mxGeometry x="460" y="-380" width="20" height="10" as="geometry"/>
                </mxCell>
                <mxCell id="0Wyq9TKgrHh_EbbWzSWt-187" style="edgeStyle=orthogonalEdgeStyle;rounded=0;orthogonalLoop=1;jettySize=auto;html=1;entryX=1;entryY=0.75;entryDx=0;entryDy=0;" parent="1" source="0Wyq9TKgrHh_EbbWzSWt-163" target="0Wyq9TKgrHh_EbbWzSWt-184" edge="1">
                    <mxGeometry relative="1" as="geometry">
                        <Array as="points">
                            <mxPoint x="1780" y="-475"/>
                            <mxPoint x="1780" y="-50"/>
                        </Array>
                    </mxGeometry>
                </mxCell>
                <mxCell id="0Wyq9TKgrHh_EbbWzSWt-198" style="edgeStyle=orthogonalEdgeStyle;rounded=0;orthogonalLoop=1;jettySize=auto;html=1;entryX=0;entryY=0.5;entryDx=0;entryDy=0;entryPerimeter=0;" parent="1" source="0Wyq9TKgrHh_EbbWzSWt-163" target="0Wyq9TKgrHh_EbbWzSWt-197" edge="1">
                    <mxGeometry relative="1" as="geometry">
                        <Array as="points">
                            <mxPoint x="2150" y="-475"/>
                        </Array>
                    </mxGeometry>
                </mxCell>
                <mxCell id="0Wyq9TKgrHh_EbbWzSWt-163" value="&lt;div&gt;pc&lt;/div&gt;" style="html=1;shadow=0;dashed=0;align=right;verticalAlign=middle;shape=mxgraph.arrows2.arrow;dy=0;dx=10;notch=0;labelPosition=left;verticalLabelPosition=middle;spacing=5;movable=1;resizable=1;rotatable=1;deletable=1;editable=1;locked=0;connectable=1;container=0;" parent="1" vertex="1">
                    <mxGeometry x="460" y="-480" width="20" height="10" as="geometry"/>
                </mxCell>
                <mxCell id="0Wyq9TKgrHh_EbbWzSWt-224" style="edgeStyle=orthogonalEdgeStyle;rounded=0;orthogonalLoop=1;jettySize=auto;html=1;entryX=0;entryY=0.5;entryDx=0;entryDy=0;entryPerimeter=0;" parent="1" source="0Wyq9TKgrHh_EbbWzSWt-164" target="0Wyq9TKgrHh_EbbWzSWt-223" edge="1">
                    <mxGeometry relative="1" as="geometry"/>
                </mxCell>
                <mxCell id="0Wyq9TKgrHh_EbbWzSWt-164" value="br_pred" style="html=1;shadow=0;dashed=0;align=right;verticalAlign=middle;shape=mxgraph.arrows2.arrow;dy=0;dx=10;notch=0;labelPosition=left;verticalLabelPosition=middle;spacing=5;movable=1;resizable=1;rotatable=1;deletable=1;editable=1;locked=0;connectable=1;container=0;" parent="1" vertex="1">
                    <mxGeometry x="460" y="-460" width="20" height="10" as="geometry"/>
                </mxCell>
                <mxCell id="0Wyq9TKgrHh_EbbWzSWt-81" value="" style="group" parent="1" vertex="1" connectable="0">
                    <mxGeometry x="590" y="-430" width="170" height="490" as="geometry"/>
                </mxCell>
                <mxCell id="0Wyq9TKgrHh_EbbWzSWt-1" value="&lt;b&gt;CONTROLLER&lt;/b&gt;" style="rounded=1;whiteSpace=wrap;html=1;movable=1;resizable=1;rotatable=1;deletable=1;editable=1;locked=0;connectable=1;" parent="0Wyq9TKgrHh_EbbWzSWt-81" vertex="1">
                    <mxGeometry x="10" width="150" height="480" as="geometry"/>
                </mxCell>
                <mxCell id="0Wyq9TKgrHh_EbbWzSWt-6" value="br_sig" style="html=1;shadow=0;dashed=0;align=right;verticalAlign=middle;shape=mxgraph.arrows2.arrow;dy=0;dx=10;notch=0;labelPosition=left;verticalLabelPosition=middle;spacing=5;movable=1;resizable=1;rotatable=1;deletable=1;editable=1;locked=0;connectable=1;" parent="0Wyq9TKgrHh_EbbWzSWt-81" vertex="1">
                    <mxGeometry x="150" y="40" width="20" height="10" as="geometry"/>
                </mxCell>
                <mxCell id="0Wyq9TKgrHh_EbbWzSWt-17" value="&lt;div&gt;br_op&lt;/div&gt;" style="html=1;shadow=0;dashed=0;align=right;verticalAlign=middle;shape=mxgraph.arrows2.arrow;dy=0;dx=10;notch=0;labelPosition=left;verticalLabelPosition=middle;spacing=5;movable=1;resizable=1;rotatable=1;deletable=1;editable=1;locked=0;connectable=1;" parent="0Wyq9TKgrHh_EbbWzSWt-81" vertex="1">
                    <mxGeometry x="150" y="60" width="20" height="10" as="geometry"/>
                </mxCell>
                <mxCell id="0Wyq9TKgrHh_EbbWzSWt-18" value="lsu_op" style="html=1;shadow=0;dashed=0;align=right;verticalAlign=middle;shape=mxgraph.arrows2.arrow;dy=0;dx=10;notch=0;labelPosition=left;verticalLabelPosition=middle;spacing=5;movable=1;resizable=1;rotatable=1;deletable=1;editable=1;locked=0;connectable=1;" parent="0Wyq9TKgrHh_EbbWzSWt-81" vertex="1">
                    <mxGeometry x="150" y="80" width="20" height="10" as="geometry"/>
                </mxCell>
                <mxCell id="0Wyq9TKgrHh_EbbWzSWt-19" value="&lt;div&gt;alu_op&lt;/div&gt;" style="html=1;shadow=0;dashed=0;align=right;verticalAlign=middle;shape=mxgraph.arrows2.arrow;dy=0;dx=10;notch=0;labelPosition=left;verticalLabelPosition=middle;spacing=5;movable=1;resizable=1;rotatable=1;deletable=1;editable=1;locked=0;connectable=1;" parent="0Wyq9TKgrHh_EbbWzSWt-81" vertex="1">
                    <mxGeometry x="150" y="100" width="20" height="10" as="geometry"/>
                </mxCell>
                <mxCell id="0Wyq9TKgrHh_EbbWzSWt-20" value="&lt;div&gt;data_origin&lt;/div&gt;" style="html=1;shadow=0;dashed=0;align=right;verticalAlign=middle;shape=mxgraph.arrows2.arrow;dy=0;dx=10;notch=0;labelPosition=left;verticalLabelPosition=middle;spacing=5;movable=1;resizable=1;rotatable=1;deletable=1;editable=1;locked=0;connectable=1;" parent="0Wyq9TKgrHh_EbbWzSWt-81" vertex="1">
                    <mxGeometry x="150" y="120" width="20" height="10" as="geometry"/>
                </mxCell>
                <mxCell id="0Wyq9TKgrHh_EbbWzSWt-21" value="data_dest" style="html=1;shadow=0;dashed=0;align=right;verticalAlign=middle;shape=mxgraph.arrows2.arrow;dy=0;dx=10;notch=0;labelPosition=left;verticalLabelPosition=middle;spacing=5;movable=1;resizable=1;rotatable=1;deletable=1;editable=1;locked=0;connectable=1;" parent="0Wyq9TKgrHh_EbbWzSWt-81" vertex="1">
                    <mxGeometry x="150" y="140" width="20" height="10" as="geometry"/>
                </mxCell>
                <mxCell id="0Wyq9TKgrHh_EbbWzSWt-22" value="imm" style="html=1;shadow=0;dashed=0;align=right;verticalAlign=middle;shape=mxgraph.arrows2.arrow;dy=0;dx=10;notch=0;labelPosition=left;verticalLabelPosition=middle;spacing=5;movable=1;resizable=1;rotatable=1;deletable=1;editable=1;locked=0;connectable=1;" parent="0Wyq9TKgrHh_EbbWzSWt-81" vertex="1">
                    <mxGeometry x="150" y="160" width="20" height="10" as="geometry"/>
                </mxCell>
                <mxCell id="0Wyq9TKgrHh_EbbWzSWt-23" value="reg_addr1" style="html=1;shadow=0;dashed=0;align=right;verticalAlign=middle;shape=mxgraph.arrows2.arrow;dy=0;dx=10;notch=0;labelPosition=left;verticalLabelPosition=middle;spacing=5;movable=1;resizable=1;rotatable=1;deletable=1;editable=1;locked=0;connectable=1;" parent="0Wyq9TKgrHh_EbbWzSWt-81" vertex="1">
                    <mxGeometry x="150" y="360" width="20" height="10" as="geometry"/>
                </mxCell>
                <mxCell id="0Wyq9TKgrHh_EbbWzSWt-24" value="reg_addr2" style="html=1;shadow=0;dashed=0;align=right;verticalAlign=middle;shape=mxgraph.arrows2.arrow;dy=0;dx=10;notch=0;labelPosition=left;verticalLabelPosition=middle;spacing=5;movable=1;resizable=1;rotatable=1;deletable=1;editable=1;locked=0;connectable=1;" parent="0Wyq9TKgrHh_EbbWzSWt-81" vertex="1">
                    <mxGeometry x="150" y="380" width="20" height="10" as="geometry"/>
                </mxCell>
                <mxCell id="0Wyq9TKgrHh_EbbWzSWt-25" value="reg_wr_addr" style="html=1;shadow=0;dashed=0;align=right;verticalAlign=middle;shape=mxgraph.arrows2.arrow;dy=0;dx=10;notch=0;labelPosition=left;verticalLabelPosition=middle;spacing=5;movable=1;resizable=1;rotatable=1;deletable=1;editable=1;locked=0;connectable=1;" parent="0Wyq9TKgrHh_EbbWzSWt-81" vertex="1">
                    <mxGeometry x="150" y="270" width="20" height="10" as="geometry"/>
                </mxCell>
                <mxCell id="0Wyq9TKgrHh_EbbWzSWt-26" value="&lt;div&gt;reg_wr_sig&lt;/div&gt;" style="html=1;shadow=0;dashed=0;align=right;verticalAlign=middle;shape=mxgraph.arrows2.arrow;dy=0;dx=10;notch=0;labelPosition=left;verticalLabelPosition=middle;spacing=5;movable=1;resizable=1;rotatable=1;deletable=1;editable=1;locked=0;connectable=1;" parent="0Wyq9TKgrHh_EbbWzSWt-81" vertex="1">
                    <mxGeometry x="150" y="290" width="20" height="10" as="geometry"/>
                </mxCell>
                <mxCell id="0Wyq9TKgrHh_EbbWzSWt-31" value="mem_wr_sig" style="html=1;shadow=0;dashed=0;align=right;verticalAlign=middle;shape=mxgraph.arrows2.arrow;dy=0;dx=10;notch=0;labelPosition=left;verticalLabelPosition=middle;spacing=5;direction=east;movable=1;resizable=1;rotatable=1;deletable=1;editable=1;locked=0;connectable=1;" parent="0Wyq9TKgrHh_EbbWzSWt-81" vertex="1">
                    <mxGeometry x="150" y="310" width="20" height="10" as="geometry"/>
                </mxCell>
                <mxCell id="0Wyq9TKgrHh_EbbWzSWt-52" value="instruction" style="html=1;shadow=0;dashed=0;align=left;verticalAlign=middle;shape=mxgraph.arrows2.arrow;dy=0;dx=10;notch=0;labelPosition=right;verticalLabelPosition=middle;spacing=5;movable=1;resizable=1;rotatable=1;deletable=1;editable=1;locked=0;connectable=1;" parent="0Wyq9TKgrHh_EbbWzSWt-81" vertex="1">
                    <mxGeometry y="50" width="20" height="10" as="geometry"/>
                </mxCell>
                <mxCell id="0Wyq9TKgrHh_EbbWzSWt-82" value="" style="group" parent="1" vertex="1" connectable="0">
                    <mxGeometry x="1000" y="900" width="290" height="150" as="geometry"/>
                </mxCell>
                <mxCell id="0Wyq9TKgrHh_EbbWzSWt-36" value="REGISTER FILE" style="rounded=1;whiteSpace=wrap;html=1;movable=1;resizable=1;rotatable=1;deletable=1;editable=1;locked=0;connectable=1;" parent="0Wyq9TKgrHh_EbbWzSWt-82" vertex="1">
                    <mxGeometry x="10" width="270" height="140" as="geometry"/>
                </mxCell>
                <mxCell id="0Wyq9TKgrHh_EbbWzSWt-37" value="&lt;div&gt;rs1_addr&lt;/div&gt;" style="html=1;shadow=0;dashed=0;align=left;verticalAlign=middle;shape=mxgraph.arrows2.arrow;dy=0;dx=10;notch=0;labelPosition=right;verticalLabelPosition=middle;spacing=5;movable=1;resizable=1;rotatable=1;deletable=1;editable=1;locked=0;connectable=1;" parent="0Wyq9TKgrHh_EbbWzSWt-82" vertex="1">
                    <mxGeometry y="20" width="20" height="10" as="geometry"/>
                </mxCell>
                <mxCell id="0Wyq9TKgrHh_EbbWzSWt-38" value="rs2_addr" style="html=1;shadow=0;dashed=0;align=left;verticalAlign=middle;shape=mxgraph.arrows2.arrow;dy=0;dx=10;notch=0;labelPosition=right;verticalLabelPosition=middle;spacing=5;movable=1;resizable=1;rotatable=1;deletable=1;editable=1;locked=0;connectable=1;" parent="0Wyq9TKgrHh_EbbWzSWt-82" vertex="1">
                    <mxGeometry y="40" width="20" height="10" as="geometry"/>
                </mxCell>
                <mxCell id="0Wyq9TKgrHh_EbbWzSWt-39" value="wr_addr" style="html=1;shadow=0;dashed=0;align=center;verticalAlign=bottom;shape=mxgraph.arrows2.arrow;dy=0;dx=10;notch=0;labelPosition=center;verticalLabelPosition=top;spacing=5;direction=north;movable=1;resizable=1;rotatable=1;deletable=1;editable=1;locked=0;connectable=1;" parent="0Wyq9TKgrHh_EbbWzSWt-82" vertex="1">
                    <mxGeometry x="240" y="130" width="10" height="20" as="geometry"/>
                </mxCell>
                <mxCell id="0Wyq9TKgrHh_EbbWzSWt-40" value="wr_enable" style="html=1;shadow=0;dashed=0;align=center;verticalAlign=bottom;shape=mxgraph.arrows2.arrow;dy=0;dx=10;notch=0;labelPosition=center;verticalLabelPosition=top;spacing=5;direction=north;movable=1;resizable=1;rotatable=1;deletable=1;editable=1;locked=0;connectable=1;" parent="0Wyq9TKgrHh_EbbWzSWt-82" vertex="1">
                    <mxGeometry x="180" y="130" width="10" height="20" as="geometry"/>
                </mxCell>
                <mxCell id="0Wyq9TKgrHh_EbbWzSWt-46" value="&lt;div&gt;wr_data&lt;/div&gt;" style="html=1;shadow=0;dashed=0;align=center;verticalAlign=bottom;shape=mxgraph.arrows2.arrow;dy=0;dx=10;notch=0;labelPosition=center;verticalLabelPosition=top;spacing=5;direction=north;movable=1;resizable=1;rotatable=1;deletable=1;editable=1;locked=0;connectable=1;" parent="0Wyq9TKgrHh_EbbWzSWt-82" vertex="1">
                    <mxGeometry x="120" y="130" width="10" height="20" as="geometry"/>
                </mxCell>
                <mxCell id="0Wyq9TKgrHh_EbbWzSWt-48" value="&lt;div&gt;rs1&lt;/div&gt;" style="html=1;shadow=0;dashed=0;align=right;verticalAlign=middle;shape=mxgraph.arrows2.arrow;dy=0;dx=10;notch=0;labelPosition=left;verticalLabelPosition=middle;spacing=5;movable=1;resizable=1;rotatable=1;deletable=1;editable=1;locked=0;connectable=1;" parent="0Wyq9TKgrHh_EbbWzSWt-82" vertex="1">
                    <mxGeometry x="270" y="20" width="20" height="10" as="geometry"/>
                </mxCell>
                <mxCell id="0Wyq9TKgrHh_EbbWzSWt-49" value="&lt;div&gt;rs2&lt;/div&gt;" style="html=1;shadow=0;dashed=0;align=right;verticalAlign=middle;shape=mxgraph.arrows2.arrow;dy=0;dx=10;notch=0;labelPosition=left;verticalLabelPosition=middle;spacing=5;movable=1;resizable=1;rotatable=1;deletable=1;editable=1;locked=0;connectable=1;" parent="0Wyq9TKgrHh_EbbWzSWt-82" vertex="1">
                    <mxGeometry x="270" y="40" width="20" height="10" as="geometry"/>
                </mxCell>
                <mxCell id="0Wyq9TKgrHh_EbbWzSWt-169" style="edgeStyle=orthogonalEdgeStyle;rounded=0;orthogonalLoop=1;jettySize=auto;html=1;entryX=0;entryY=0.5;entryDx=0;entryDy=0;entryPerimeter=0;" parent="1" source="0Wyq9TKgrHh_EbbWzSWt-48" target="0Wyq9TKgrHh_EbbWzSWt-53" edge="1">
                    <mxGeometry relative="1" as="geometry">
                        <Array as="points">
                            <mxPoint x="1320" y="925"/>
                            <mxPoint x="1320" y="225"/>
                        </Array>
                    </mxGeometry>
                </mxCell>
                <mxCell id="0Wyq9TKgrHh_EbbWzSWt-170" style="edgeStyle=orthogonalEdgeStyle;rounded=0;orthogonalLoop=1;jettySize=auto;html=1;entryX=0;entryY=0.5;entryDx=0;entryDy=0;entryPerimeter=0;" parent="1" source="0Wyq9TKgrHh_EbbWzSWt-49" target="0Wyq9TKgrHh_EbbWzSWt-55" edge="1">
                    <mxGeometry relative="1" as="geometry">
                        <Array as="points">
                            <mxPoint x="1350" y="945"/>
                            <mxPoint x="1350" y="265"/>
                        </Array>
                    </mxGeometry>
                </mxCell>
                <mxCell id="0Wyq9TKgrHh_EbbWzSWt-173" style="edgeStyle=orthogonalEdgeStyle;rounded=0;orthogonalLoop=1;jettySize=auto;html=1;entryX=0;entryY=0.5;entryDx=0;entryDy=0;entryPerimeter=0;" parent="1" source="0Wyq9TKgrHh_EbbWzSWt-23" target="0Wyq9TKgrHh_EbbWzSWt-5" edge="1">
                    <mxGeometry relative="1" as="geometry">
                        <Array as="points">
                            <mxPoint x="1280" y="-65"/>
                            <mxPoint x="1280" y="205"/>
                        </Array>
                    </mxGeometry>
                </mxCell>
                <mxCell id="0Wyq9TKgrHh_EbbWzSWt-174" style="edgeStyle=orthogonalEdgeStyle;rounded=0;orthogonalLoop=1;jettySize=auto;html=1;entryX=0;entryY=0.5;entryDx=0;entryDy=0;entryPerimeter=0;" parent="1" source="0Wyq9TKgrHh_EbbWzSWt-24" target="0Wyq9TKgrHh_EbbWzSWt-54" edge="1">
                    <mxGeometry relative="1" as="geometry">
                        <Array as="points">
                            <mxPoint x="1310" y="-45"/>
                            <mxPoint x="1310" y="245"/>
                        </Array>
                    </mxGeometry>
                </mxCell>
                <mxCell id="0Wyq9TKgrHh_EbbWzSWt-175" style="edgeStyle=orthogonalEdgeStyle;rounded=0;orthogonalLoop=1;jettySize=auto;html=1;entryX=0;entryY=0.5;entryDx=0;entryDy=0;entryPerimeter=0;" parent="1" source="0Wyq9TKgrHh_EbbWzSWt-23" target="0Wyq9TKgrHh_EbbWzSWt-84" edge="1">
                    <mxGeometry relative="1" as="geometry">
                        <Array as="points">
                            <mxPoint x="780" y="-65"/>
                            <mxPoint x="780" y="140"/>
                            <mxPoint x="540" y="140"/>
                            <mxPoint x="540" y="355"/>
                        </Array>
                    </mxGeometry>
                </mxCell>
                <mxCell id="0Wyq9TKgrHh_EbbWzSWt-178" style="edgeStyle=orthogonalEdgeStyle;rounded=0;orthogonalLoop=1;jettySize=auto;html=1;entryX=0;entryY=0.5;entryDx=0;entryDy=0;entryPerimeter=0;" parent="1" source="0Wyq9TKgrHh_EbbWzSWt-24" target="0Wyq9TKgrHh_EbbWzSWt-85" edge="1">
                    <mxGeometry relative="1" as="geometry">
                        <Array as="points">
                            <mxPoint x="800" y="-45"/>
                            <mxPoint x="800" y="160"/>
                            <mxPoint x="560" y="160"/>
                        </Array>
                    </mxGeometry>
                </mxCell>
                <mxCell id="0Wyq9TKgrHh_EbbWzSWt-180" style="edgeStyle=orthogonalEdgeStyle;rounded=0;orthogonalLoop=1;jettySize=auto;html=1;entryX=0;entryY=0.5;entryDx=0;entryDy=0;entryPerimeter=0;" parent="1" source="0Wyq9TKgrHh_EbbWzSWt-23" target="0Wyq9TKgrHh_EbbWzSWt-37" edge="1">
                    <mxGeometry relative="1" as="geometry">
                        <Array as="points">
                            <mxPoint x="980" y="-65"/>
                            <mxPoint x="980" y="925"/>
                        </Array>
                    </mxGeometry>
                </mxCell>
                <mxCell id="0Wyq9TKgrHh_EbbWzSWt-181" style="edgeStyle=orthogonalEdgeStyle;rounded=0;orthogonalLoop=1;jettySize=auto;html=1;entryX=0;entryY=0.5;entryDx=0;entryDy=0;entryPerimeter=0;" parent="1" source="0Wyq9TKgrHh_EbbWzSWt-24" target="0Wyq9TKgrHh_EbbWzSWt-38" edge="1">
                    <mxGeometry relative="1" as="geometry">
                        <Array as="points">
                            <mxPoint x="950" y="-45"/>
                            <mxPoint x="950" y="945"/>
                        </Array>
                    </mxGeometry>
                </mxCell>
                <mxCell id="0Wyq9TKgrHh_EbbWzSWt-179" style="edgeStyle=orthogonalEdgeStyle;rounded=0;orthogonalLoop=1;jettySize=auto;html=1;entryX=0;entryY=0.5;entryDx=0;entryDy=0;entryPerimeter=0;" parent="1" source="0Wyq9TKgrHh_EbbWzSWt-89" target="0Wyq9TKgrHh_EbbWzSWt-158" edge="1">
                    <mxGeometry relative="1" as="geometry">
                        <Array as="points">
                            <mxPoint x="920" y="355"/>
                            <mxPoint x="920" y="540"/>
                            <mxPoint x="405" y="540"/>
                        </Array>
                    </mxGeometry>
                </mxCell>
                <mxCell id="0Wyq9TKgrHh_EbbWzSWt-162" style="edgeStyle=orthogonalEdgeStyle;rounded=0;orthogonalLoop=1;jettySize=auto;html=1;entryX=0;entryY=0.5;entryDx=0;entryDy=0;entryPerimeter=0;" parent="1" source="0Wyq9TKgrHh_EbbWzSWt-159" target="0Wyq9TKgrHh_EbbWzSWt-52" edge="1">
                    <mxGeometry relative="1" as="geometry">
                        <Array as="points">
                            <mxPoint x="500" y="-375"/>
                            <mxPoint x="500" y="-375"/>
                        </Array>
                    </mxGeometry>
                </mxCell>
                <mxCell id="0Wyq9TKgrHh_EbbWzSWt-202" style="edgeStyle=orthogonalEdgeStyle;rounded=0;orthogonalLoop=1;jettySize=auto;html=1;entryX=0;entryY=0.5;entryDx=0;entryDy=0;entryPerimeter=0;" parent="1" source="0Wyq9TKgrHh_EbbWzSWt-184" target="0Wyq9TKgrHh_EbbWzSWt-199" edge="1">
                    <mxGeometry relative="1" as="geometry"/>
                </mxCell>
                <mxCell id="0Wyq9TKgrHh_EbbWzSWt-184" value="MUX" style="shape=dataStorage;whiteSpace=wrap;html=1;fixedSize=1;direction=west;" parent="1" vertex="1">
                    <mxGeometry x="1860" y="-70" width="100" height="80" as="geometry"/>
                </mxCell>
                <mxCell id="0Wyq9TKgrHh_EbbWzSWt-201" style="edgeStyle=orthogonalEdgeStyle;rounded=0;orthogonalLoop=1;jettySize=auto;html=1;entryX=0;entryY=0.5;entryDx=0;entryDy=0;entryPerimeter=0;" parent="1" source="0Wyq9TKgrHh_EbbWzSWt-185" target="0Wyq9TKgrHh_EbbWzSWt-200" edge="1">
                    <mxGeometry relative="1" as="geometry"/>
                </mxCell>
                <mxCell id="0Wyq9TKgrHh_EbbWzSWt-185" value="MUX" style="shape=dataStorage;whiteSpace=wrap;html=1;fixedSize=1;direction=west;" parent="1" vertex="1">
                    <mxGeometry x="1860" y="70" width="100" height="80" as="geometry"/>
                </mxCell>
                <mxCell id="0Wyq9TKgrHh_EbbWzSWt-191" style="edgeStyle=orthogonalEdgeStyle;rounded=0;orthogonalLoop=1;jettySize=auto;html=1;entryX=1;entryY=0.25;entryDx=0;entryDy=0;" parent="1" source="0Wyq9TKgrHh_EbbWzSWt-78" target="0Wyq9TKgrHh_EbbWzSWt-184" edge="1">
                    <mxGeometry relative="1" as="geometry">
                        <Array as="points">
                            <mxPoint x="1800" y="205"/>
                            <mxPoint x="1800" y="-10"/>
                        </Array>
                    </mxGeometry>
                </mxCell>
                <mxCell id="0Wyq9TKgrHh_EbbWzSWt-193" style="edgeStyle=orthogonalEdgeStyle;rounded=0;orthogonalLoop=1;jettySize=auto;html=1;entryX=1;entryY=0.25;entryDx=0;entryDy=0;" parent="1" source="0Wyq9TKgrHh_EbbWzSWt-79" target="0Wyq9TKgrHh_EbbWzSWt-185" edge="1">
                    <mxGeometry relative="1" as="geometry">
                        <Array as="points">
                            <mxPoint x="1820" y="225"/>
                            <mxPoint x="1820" y="130"/>
                        </Array>
                    </mxGeometry>
                </mxCell>
                <mxCell id="0Wyq9TKgrHh_EbbWzSWt-194" style="edgeStyle=orthogonalEdgeStyle;rounded=0;orthogonalLoop=1;jettySize=auto;html=1;entryX=1;entryY=0.75;entryDx=0;entryDy=0;" parent="1" source="0Wyq9TKgrHh_EbbWzSWt-22" target="0Wyq9TKgrHh_EbbWzSWt-185" edge="1">
                    <mxGeometry relative="1" as="geometry"/>
                </mxCell>
                <mxCell id="0Wyq9TKgrHh_EbbWzSWt-195" style="edgeStyle=orthogonalEdgeStyle;rounded=0;orthogonalLoop=1;jettySize=auto;html=1;entryX=0.5;entryY=1;entryDx=0;entryDy=0;" parent="1" source="0Wyq9TKgrHh_EbbWzSWt-20" target="0Wyq9TKgrHh_EbbWzSWt-184" edge="1">
                    <mxGeometry relative="1" as="geometry"/>
                </mxCell>
                <mxCell id="0Wyq9TKgrHh_EbbWzSWt-196" style="edgeStyle=orthogonalEdgeStyle;rounded=0;orthogonalLoop=1;jettySize=auto;html=1;entryX=0.5;entryY=1;entryDx=0;entryDy=0;" parent="1" source="0Wyq9TKgrHh_EbbWzSWt-20" target="0Wyq9TKgrHh_EbbWzSWt-185" edge="1">
                    <mxGeometry relative="1" as="geometry">
                        <Array as="points">
                            <mxPoint x="1830" y="-305"/>
                            <mxPoint x="1830" y="40"/>
                            <mxPoint x="1900" y="40"/>
                            <mxPoint x="1900" y="70"/>
                        </Array>
                    </mxGeometry>
                </mxCell>
                <mxCell id="0Wyq9TKgrHh_EbbWzSWt-204" style="edgeStyle=orthogonalEdgeStyle;rounded=0;orthogonalLoop=1;jettySize=auto;html=1;entryX=0;entryY=0.5;entryDx=0;entryDy=0;entryPerimeter=0;" parent="1" source="0Wyq9TKgrHh_EbbWzSWt-79" target="0Wyq9TKgrHh_EbbWzSWt-203" edge="1">
                    <mxGeometry relative="1" as="geometry"/>
                </mxCell>
                <mxCell id="0Wyq9TKgrHh_EbbWzSWt-206" style="edgeStyle=orthogonalEdgeStyle;rounded=0;orthogonalLoop=1;jettySize=auto;html=1;" parent="1" source="0Wyq9TKgrHh_EbbWzSWt-6" target="0Wyq9TKgrHh_EbbWzSWt-205" edge="1">
                    <mxGeometry relative="1" as="geometry"/>
                </mxCell>
                <mxCell id="0Wyq9TKgrHh_EbbWzSWt-210" style="edgeStyle=orthogonalEdgeStyle;rounded=0;orthogonalLoop=1;jettySize=auto;html=1;entryX=0;entryY=0.5;entryDx=0;entryDy=0;entryPerimeter=0;" parent="1" source="0Wyq9TKgrHh_EbbWzSWt-17" target="0Wyq9TKgrHh_EbbWzSWt-207" edge="1">
                    <mxGeometry relative="1" as="geometry"/>
                </mxCell>
                <mxCell id="0Wyq9TKgrHh_EbbWzSWt-211" style="edgeStyle=orthogonalEdgeStyle;rounded=0;orthogonalLoop=1;jettySize=auto;html=1;" parent="1" source="0Wyq9TKgrHh_EbbWzSWt-18" target="0Wyq9TKgrHh_EbbWzSWt-208" edge="1">
                    <mxGeometry relative="1" as="geometry"/>
                </mxCell>
                <mxCell id="0Wyq9TKgrHh_EbbWzSWt-212" style="edgeStyle=orthogonalEdgeStyle;rounded=0;orthogonalLoop=1;jettySize=auto;html=1;entryX=0;entryY=0.5;entryDx=0;entryDy=0;entryPerimeter=0;" parent="1" source="0Wyq9TKgrHh_EbbWzSWt-19" target="0Wyq9TKgrHh_EbbWzSWt-209" edge="1">
                    <mxGeometry relative="1" as="geometry"/>
                </mxCell>
                <mxCell id="0Wyq9TKgrHh_EbbWzSWt-214" style="edgeStyle=orthogonalEdgeStyle;rounded=0;orthogonalLoop=1;jettySize=auto;html=1;entryX=0;entryY=0.5;entryDx=0;entryDy=0;entryPerimeter=0;" parent="1" source="0Wyq9TKgrHh_EbbWzSWt-21" target="0Wyq9TKgrHh_EbbWzSWt-213" edge="1">
                    <mxGeometry relative="1" as="geometry"/>
                </mxCell>
                <mxCell id="0Wyq9TKgrHh_EbbWzSWt-216" style="edgeStyle=orthogonalEdgeStyle;rounded=0;orthogonalLoop=1;jettySize=auto;html=1;entryX=0;entryY=0.5;entryDx=0;entryDy=0;entryPerimeter=0;" parent="1" source="0Wyq9TKgrHh_EbbWzSWt-22" target="0Wyq9TKgrHh_EbbWzSWt-215" edge="1">
                    <mxGeometry relative="1" as="geometry"/>
                </mxCell>
                <mxCell id="0Wyq9TKgrHh_EbbWzSWt-218" style="edgeStyle=orthogonalEdgeStyle;rounded=0;orthogonalLoop=1;jettySize=auto;html=1;entryX=0;entryY=0.5;entryDx=0;entryDy=0;entryPerimeter=0;" parent="1" source="0Wyq9TKgrHh_EbbWzSWt-25" target="0Wyq9TKgrHh_EbbWzSWt-217" edge="1">
                    <mxGeometry relative="1" as="geometry"/>
                </mxCell>
                <mxCell id="0Wyq9TKgrHh_EbbWzSWt-220" style="edgeStyle=orthogonalEdgeStyle;rounded=0;orthogonalLoop=1;jettySize=auto;html=1;entryX=0;entryY=0.5;entryDx=0;entryDy=0;entryPerimeter=0;" parent="1" source="0Wyq9TKgrHh_EbbWzSWt-26" target="0Wyq9TKgrHh_EbbWzSWt-219" edge="1">
                    <mxGeometry relative="1" as="geometry"/>
                </mxCell>
                <mxCell id="0Wyq9TKgrHh_EbbWzSWt-222" style="edgeStyle=orthogonalEdgeStyle;rounded=0;orthogonalLoop=1;jettySize=auto;html=1;entryX=0;entryY=0.5;entryDx=0;entryDy=0;entryPerimeter=0;" parent="1" source="0Wyq9TKgrHh_EbbWzSWt-31" target="0Wyq9TKgrHh_EbbWzSWt-221" edge="1">
                    <mxGeometry relative="1" as="geometry"/>
                </mxCell>
                <mxCell id="0Wyq9TKgrHh_EbbWzSWt-230" style="edgeStyle=orthogonalEdgeStyle;rounded=0;orthogonalLoop=1;jettySize=auto;html=1;entryX=0;entryY=0.5;entryDx=0;entryDy=0;entryPerimeter=0;" parent="1" source="0Wyq9TKgrHh_EbbWzSWt-89" target="0Wyq9TKgrHh_EbbWzSWt-229" edge="1">
                    <mxGeometry relative="1" as="geometry">
                        <Array as="points">
                            <mxPoint x="920" y="850"/>
                            <mxPoint x="2315" y="850"/>
                        </Array>
                    </mxGeometry>
                </mxCell>
                <mxCell id="0Wyq9TKgrHh_EbbWzSWt-267" style="edgeStyle=orthogonalEdgeStyle;rounded=0;orthogonalLoop=1;jettySize=auto;html=1;entryX=0;entryY=0.5;entryDx=0;entryDy=0;entryPerimeter=0;" parent="1" source="0Wyq9TKgrHh_EbbWzSWt-238" target="0Wyq9TKgrHh_EbbWzSWt-58" edge="1">
                    <mxGeometry relative="1" as="geometry">
                        <Array as="points">
                            <mxPoint x="2460" y="645"/>
                            <mxPoint x="2460" y="980"/>
                            <mxPoint x="1510" y="980"/>
                            <mxPoint x="1510" y="345"/>
                        </Array>
                    </mxGeometry>
                </mxCell>
                <mxCell id="0Wyq9TKgrHh_EbbWzSWt-272" style="edgeStyle=orthogonalEdgeStyle;rounded=0;orthogonalLoop=1;jettySize=auto;html=1;entryX=0;entryY=0.5;entryDx=0;entryDy=0;entryPerimeter=0;" parent="1" source="0Wyq9TKgrHh_EbbWzSWt-238" target="0Wyq9TKgrHh_EbbWzSWt-88" edge="1">
                    <mxGeometry relative="1" as="geometry">
                        <Array as="points">
                            <mxPoint x="2460" y="645"/>
                            <mxPoint x="2460" y="1190"/>
                            <mxPoint x="540" y="1190"/>
                            <mxPoint x="540" y="435"/>
                        </Array>
                    </mxGeometry>
                </mxCell>
                <mxCell id="0Wyq9TKgrHh_EbbWzSWt-265" style="edgeStyle=orthogonalEdgeStyle;rounded=0;orthogonalLoop=1;jettySize=auto;html=1;entryX=0;entryY=0.5;entryDx=0;entryDy=0;entryPerimeter=0;" parent="1" source="0Wyq9TKgrHh_EbbWzSWt-242" target="0Wyq9TKgrHh_EbbWzSWt-56" edge="1">
                    <mxGeometry relative="1" as="geometry">
                        <Array as="points">
                            <mxPoint x="2440" y="665"/>
                            <mxPoint x="2440" y="960"/>
                            <mxPoint x="1530" y="960"/>
                            <mxPoint x="1530" y="305"/>
                        </Array>
                    </mxGeometry>
                </mxCell>
                <mxCell id="0Wyq9TKgrHh_EbbWzSWt-270" style="edgeStyle=orthogonalEdgeStyle;rounded=0;orthogonalLoop=1;jettySize=auto;html=1;entryX=0;entryY=0.5;entryDx=0;entryDy=0;entryPerimeter=0;" parent="1" source="0Wyq9TKgrHh_EbbWzSWt-242" target="0Wyq9TKgrHh_EbbWzSWt-86" edge="1">
                    <mxGeometry relative="1" as="geometry">
                        <mxPoint x="430.6666666666667" y="500" as="targetPoint"/>
                        <Array as="points">
                            <mxPoint x="2440" y="665"/>
                            <mxPoint x="2440" y="1170"/>
                            <mxPoint x="560" y="1170"/>
                            <mxPoint x="560" y="395"/>
                        </Array>
                    </mxGeometry>
                </mxCell>
                <mxCell id="0Wyq9TKgrHh_EbbWzSWt-266" style="edgeStyle=orthogonalEdgeStyle;rounded=0;orthogonalLoop=1;jettySize=auto;html=1;entryX=0;entryY=0.5;entryDx=0;entryDy=0;entryPerimeter=0;" parent="1" source="0Wyq9TKgrHh_EbbWzSWt-243" target="0Wyq9TKgrHh_EbbWzSWt-57" edge="1">
                    <mxGeometry relative="1" as="geometry">
                        <Array as="points">
                            <mxPoint x="2450" y="685"/>
                            <mxPoint x="2450" y="970"/>
                            <mxPoint x="1520" y="970"/>
                            <mxPoint x="1520" y="325"/>
                        </Array>
                    </mxGeometry>
                </mxCell>
                <mxCell id="0Wyq9TKgrHh_EbbWzSWt-271" style="edgeStyle=orthogonalEdgeStyle;rounded=0;orthogonalLoop=1;jettySize=auto;html=1;entryX=0;entryY=0.5;entryDx=0;entryDy=0;entryPerimeter=0;" parent="1" source="0Wyq9TKgrHh_EbbWzSWt-243" target="0Wyq9TKgrHh_EbbWzSWt-87" edge="1">
                    <mxGeometry relative="1" as="geometry">
                        <Array as="points">
                            <mxPoint x="2450" y="685"/>
                            <mxPoint x="2450" y="1180"/>
                            <mxPoint x="550" y="1180"/>
                            <mxPoint x="550" y="415"/>
                        </Array>
                    </mxGeometry>
                </mxCell>
                <mxCell id="0Wyq9TKgrHh_EbbWzSWt-245" value="br_pred" style="html=1;shadow=0;dashed=0;align=left;verticalAlign=middle;shape=mxgraph.arrows2.arrow;dy=0;dx=10;notch=0;labelPosition=right;verticalLabelPosition=middle;spacing=5;movable=1;resizable=1;rotatable=1;deletable=1;editable=1;locked=0;connectable=1;container=0;" parent="1" vertex="1">
                    <mxGeometry x="-280" y="-490" width="20" height="10" as="geometry"/>
                </mxCell>
                <mxCell id="0Wyq9TKgrHh_EbbWzSWt-247" value="br_taken" style="html=1;shadow=0;dashed=0;align=left;verticalAlign=middle;shape=mxgraph.arrows2.arrow;dy=0;dx=10;notch=0;labelPosition=right;verticalLabelPosition=middle;spacing=5;movable=1;resizable=1;rotatable=1;deletable=1;editable=1;locked=0;connectable=1;container=0;" parent="1" vertex="1">
                    <mxGeometry x="-280" y="-470" width="20" height="10" as="geometry"/>
                </mxCell>
                <mxCell id="0Wyq9TKgrHh_EbbWzSWt-51" value="&lt;b&gt;FORWARD CONTROLLER&lt;/b&gt;" style="rounded=1;whiteSpace=wrap;html=1;movable=1;resizable=1;rotatable=1;deletable=1;editable=1;locked=0;connectable=1;glass=0;shadow=0;" parent="1" vertex="1">
                    <mxGeometry x="1560" y="160" width="200" height="600" as="geometry"/>
                </mxCell>
                <mxCell id="0Wyq9TKgrHh_EbbWzSWt-5" value="&lt;div&gt;reg_addr1&lt;/div&gt;" style="html=1;shadow=0;dashed=0;align=left;verticalAlign=middle;shape=mxgraph.arrows2.arrow;dy=0;dx=10;notch=0;labelPosition=right;verticalLabelPosition=middle;spacing=5;movable=1;resizable=1;rotatable=1;deletable=1;editable=1;locked=0;connectable=1;" parent="1" vertex="1">
                    <mxGeometry x="1550" y="200" width="20" height="10" as="geometry"/>
                </mxCell>
                <mxCell id="0Wyq9TKgrHh_EbbWzSWt-53" value="&lt;div&gt;reg_rs1&lt;/div&gt;" style="html=1;shadow=0;dashed=0;align=left;verticalAlign=middle;shape=mxgraph.arrows2.arrow;dy=0;dx=10;notch=0;labelPosition=right;verticalLabelPosition=middle;spacing=5;movable=1;resizable=1;rotatable=1;deletable=1;editable=1;locked=0;connectable=1;" parent="1" vertex="1">
                    <mxGeometry x="1550" y="220" width="20" height="10" as="geometry"/>
                </mxCell>
                <mxCell id="0Wyq9TKgrHh_EbbWzSWt-54" value="reg_addr2" style="html=1;shadow=0;dashed=0;align=left;verticalAlign=middle;shape=mxgraph.arrows2.arrow;dy=0;dx=10;notch=0;labelPosition=right;verticalLabelPosition=middle;spacing=5;movable=1;resizable=1;rotatable=1;deletable=1;editable=1;locked=0;connectable=1;" parent="1" vertex="1">
                    <mxGeometry x="1550" y="240" width="20" height="10" as="geometry"/>
                </mxCell>
                <mxCell id="0Wyq9TKgrHh_EbbWzSWt-55" value="reg_rs2" style="html=1;shadow=0;dashed=0;align=left;verticalAlign=middle;shape=mxgraph.arrows2.arrow;dy=0;dx=10;notch=0;labelPosition=right;verticalLabelPosition=middle;spacing=5;movable=1;resizable=1;rotatable=1;deletable=1;editable=1;locked=0;connectable=1;" parent="1" vertex="1">
                    <mxGeometry x="1550" y="260" width="20" height="10" as="geometry"/>
                </mxCell>
                <mxCell id="0Wyq9TKgrHh_EbbWzSWt-56" value="id_ex_reg_wr_addr" style="html=1;shadow=0;dashed=0;align=left;verticalAlign=middle;shape=mxgraph.arrows2.arrow;dy=0;dx=10;notch=0;labelPosition=right;verticalLabelPosition=middle;spacing=5;movable=1;resizable=1;rotatable=1;deletable=1;editable=1;locked=0;connectable=1;" parent="1" vertex="1">
                    <mxGeometry x="1550" y="300" width="20" height="10" as="geometry"/>
                </mxCell>
                <mxCell id="0Wyq9TKgrHh_EbbWzSWt-57" value="id_ex_reg_wr_sig" style="html=1;shadow=0;dashed=0;align=left;verticalAlign=middle;shape=mxgraph.arrows2.arrow;dy=0;dx=10;notch=0;labelPosition=right;verticalLabelPosition=middle;spacing=5;movable=1;resizable=1;rotatable=1;deletable=1;editable=1;locked=0;connectable=1;" parent="1" vertex="1">
                    <mxGeometry x="1550" y="320" width="20" height="10" as="geometry"/>
                </mxCell>
                <mxCell id="0Wyq9TKgrHh_EbbWzSWt-58" value="id_ex_data_dest_i" style="html=1;shadow=0;dashed=0;align=left;verticalAlign=middle;shape=mxgraph.arrows2.arrow;dy=0;dx=10;notch=0;labelPosition=right;verticalLabelPosition=middle;spacing=5;movable=1;resizable=1;rotatable=1;deletable=1;editable=1;locked=0;connectable=1;" parent="1" vertex="1">
                    <mxGeometry x="1550" y="340" width="20" height="10" as="geometry"/>
                </mxCell>
                <mxCell id="0Wyq9TKgrHh_EbbWzSWt-59" value="id_ex_alu_result_i" style="html=1;shadow=0;dashed=0;align=left;verticalAlign=middle;shape=mxgraph.arrows2.arrow;dy=0;dx=10;notch=0;labelPosition=right;verticalLabelPosition=middle;spacing=5;movable=1;resizable=1;rotatable=1;deletable=1;editable=1;locked=0;connectable=1;" parent="1" vertex="1">
                    <mxGeometry x="1550" y="360" width="20" height="10" as="geometry"/>
                </mxCell>
                <mxCell id="0Wyq9TKgrHh_EbbWzSWt-60" value="id_ex_pc_plus4_i" style="html=1;shadow=0;dashed=0;align=left;verticalAlign=middle;shape=mxgraph.arrows2.arrow;dy=0;dx=10;notch=0;labelPosition=right;verticalLabelPosition=middle;spacing=5;movable=1;resizable=1;rotatable=1;deletable=1;editable=1;locked=0;connectable=1;" parent="1" vertex="1">
                    <mxGeometry x="1550" y="380" width="20" height="10" as="geometry"/>
                </mxCell>
                <mxCell id="0Wyq9TKgrHh_EbbWzSWt-66" value="ex_mem_reg_wr_addr" style="html=1;shadow=0;dashed=0;align=left;verticalAlign=middle;shape=mxgraph.arrows2.arrow;dy=0;dx=10;notch=0;labelPosition=right;verticalLabelPosition=middle;spacing=5;movable=1;resizable=1;rotatable=1;deletable=1;editable=1;locked=0;connectable=1;" parent="1" vertex="1">
                    <mxGeometry x="1550" y="490" width="20" height="10" as="geometry"/>
                </mxCell>
                <mxCell id="0Wyq9TKgrHh_EbbWzSWt-67" value="ex_mem_reg_wr_sig" style="html=1;shadow=0;dashed=0;align=left;verticalAlign=middle;shape=mxgraph.arrows2.arrow;dy=0;dx=10;notch=0;labelPosition=right;verticalLabelPosition=middle;spacing=5;movable=1;resizable=1;rotatable=1;deletable=1;editable=1;locked=0;connectable=1;" parent="1" vertex="1">
                    <mxGeometry x="1550" y="510" width="20" height="10" as="geometry"/>
                </mxCell>
                <mxCell id="0Wyq9TKgrHh_EbbWzSWt-68" value="ex_mem_data_dest_i" style="html=1;shadow=0;dashed=0;align=left;verticalAlign=middle;shape=mxgraph.arrows2.arrow;dy=0;dx=10;notch=0;labelPosition=right;verticalLabelPosition=middle;spacing=5;movable=1;resizable=1;rotatable=1;deletable=1;editable=1;locked=0;connectable=1;" parent="1" vertex="1">
                    <mxGeometry x="1550" y="530" width="20" height="10" as="geometry"/>
                </mxCell>
                <mxCell id="0Wyq9TKgrHh_EbbWzSWt-69" value="ex_mem_alu_result_i" style="html=1;shadow=0;dashed=0;align=left;verticalAlign=middle;shape=mxgraph.arrows2.arrow;dy=0;dx=10;notch=0;labelPosition=right;verticalLabelPosition=middle;spacing=5;movable=1;resizable=1;rotatable=1;deletable=1;editable=1;locked=0;connectable=1;" parent="1" vertex="1">
                    <mxGeometry x="1550" y="550" width="20" height="10" as="geometry"/>
                </mxCell>
                <mxCell id="0Wyq9TKgrHh_EbbWzSWt-70" value="ex_mem_pc_plus4_i" style="html=1;shadow=0;dashed=0;align=left;verticalAlign=middle;shape=mxgraph.arrows2.arrow;dy=0;dx=10;notch=0;labelPosition=right;verticalLabelPosition=middle;spacing=5;movable=1;resizable=1;rotatable=1;deletable=1;editable=1;locked=0;connectable=1;" parent="1" vertex="1">
                    <mxGeometry x="1550" y="570" width="20" height="10" as="geometry"/>
                </mxCell>
                <mxCell id="0Wyq9TKgrHh_EbbWzSWt-71" value="ex_mem_mem_rd_data_i" style="html=1;shadow=0;dashed=0;align=left;verticalAlign=middle;shape=mxgraph.arrows2.arrow;dy=0;dx=10;notch=0;labelPosition=right;verticalLabelPosition=middle;spacing=5;movable=1;resizable=1;rotatable=1;deletable=1;editable=1;locked=0;connectable=1;" parent="1" vertex="1">
                    <mxGeometry x="1550" y="590" width="20" height="10" as="geometry"/>
                </mxCell>
                <mxCell id="0Wyq9TKgrHh_EbbWzSWt-72" value="mem_wb_reg_wr_addr" style="html=1;shadow=0;dashed=0;align=left;verticalAlign=middle;shape=mxgraph.arrows2.arrow;dy=0;dx=10;notch=0;labelPosition=right;verticalLabelPosition=middle;spacing=5;movable=1;resizable=1;rotatable=1;deletable=1;editable=1;locked=0;connectable=1;" parent="1" vertex="1">
                    <mxGeometry x="1550" y="630" width="20" height="10" as="geometry"/>
                </mxCell>
                <mxCell id="0Wyq9TKgrHh_EbbWzSWt-73" value="mem_wb_reg_wr_sig" style="html=1;shadow=0;dashed=0;align=left;verticalAlign=middle;shape=mxgraph.arrows2.arrow;dy=0;dx=10;notch=0;labelPosition=right;verticalLabelPosition=middle;spacing=5;movable=1;resizable=1;rotatable=1;deletable=1;editable=1;locked=0;connectable=1;" parent="1" vertex="1">
                    <mxGeometry x="1550" y="650" width="20" height="10" as="geometry"/>
                </mxCell>
                <mxCell id="0Wyq9TKgrHh_EbbWzSWt-74" value="mem_wb_data_dest_i" style="html=1;shadow=0;dashed=0;align=left;verticalAlign=middle;shape=mxgraph.arrows2.arrow;dy=0;dx=10;notch=0;labelPosition=right;verticalLabelPosition=middle;spacing=5;movable=1;resizable=1;rotatable=1;deletable=1;editable=1;locked=0;connectable=1;" parent="1" vertex="1">
                    <mxGeometry x="1550" y="670" width="20" height="10" as="geometry"/>
                </mxCell>
                <mxCell id="0Wyq9TKgrHh_EbbWzSWt-75" value="mem_wb_alu_result_i" style="html=1;shadow=0;dashed=0;align=left;verticalAlign=middle;shape=mxgraph.arrows2.arrow;dy=0;dx=10;notch=0;labelPosition=right;verticalLabelPosition=middle;spacing=5;movable=1;resizable=1;rotatable=1;deletable=1;editable=1;locked=0;connectable=1;" parent="1" vertex="1">
                    <mxGeometry x="1550" y="690" width="20" height="10" as="geometry"/>
                </mxCell>
                <mxCell id="0Wyq9TKgrHh_EbbWzSWt-76" value="mem_wb_pc_plus4_i" style="html=1;shadow=0;dashed=0;align=left;verticalAlign=middle;shape=mxgraph.arrows2.arrow;dy=0;dx=10;notch=0;labelPosition=right;verticalLabelPosition=middle;spacing=5;movable=1;resizable=1;rotatable=1;deletable=1;editable=1;locked=0;connectable=1;" parent="1" vertex="1">
                    <mxGeometry x="1550" y="710" width="20" height="10" as="geometry"/>
                </mxCell>
                <mxCell id="0Wyq9TKgrHh_EbbWzSWt-77" value="mem_wb_mem_rd_data_i" style="html=1;shadow=0;dashed=0;align=left;verticalAlign=middle;shape=mxgraph.arrows2.arrow;dy=0;dx=10;notch=0;labelPosition=right;verticalLabelPosition=middle;spacing=5;movable=1;resizable=1;rotatable=1;deletable=1;editable=1;locked=0;connectable=1;" parent="1" vertex="1">
                    <mxGeometry x="1550" y="730" width="20" height="10" as="geometry"/>
                </mxCell>
                <mxCell id="0Wyq9TKgrHh_EbbWzSWt-78" value="&lt;div&gt;rs1&lt;/div&gt;" style="html=1;shadow=0;dashed=0;align=right;verticalAlign=middle;shape=mxgraph.arrows2.arrow;dy=0;dx=10;notch=0;labelPosition=left;verticalLabelPosition=middle;spacing=5;movable=1;resizable=1;rotatable=1;deletable=1;editable=1;locked=0;connectable=1;" parent="1" vertex="1">
                    <mxGeometry x="1750" y="200" width="20" height="10" as="geometry"/>
                </mxCell>
                <mxCell id="0Wyq9TKgrHh_EbbWzSWt-79" value="&lt;div&gt;rs2&lt;/div&gt;" style="html=1;shadow=0;dashed=0;align=right;verticalAlign=middle;shape=mxgraph.arrows2.arrow;dy=0;dx=10;notch=0;labelPosition=left;verticalLabelPosition=middle;spacing=5;movable=1;resizable=1;rotatable=1;deletable=1;editable=1;locked=0;connectable=1;" parent="1" vertex="1">
                    <mxGeometry x="1750" y="220" width="20" height="10" as="geometry"/>
                </mxCell>
                <mxCell id="0Wyq9TKgrHh_EbbWzSWt-83" value="&lt;b&gt;&lt;font style=&quot;font-size: 12px;&quot;&gt;STALL UNIT&lt;/font&gt;&lt;/b&gt;" style="rounded=1;whiteSpace=wrap;html=1;" parent="1" vertex="1">
                    <mxGeometry x="590" y="320" width="320" height="160" as="geometry"/>
                </mxCell>
                <mxCell id="0Wyq9TKgrHh_EbbWzSWt-84" value="reg_rs1_addr" style="html=1;shadow=0;dashed=0;align=left;verticalAlign=middle;shape=mxgraph.arrows2.arrow;dy=0;dx=10;notch=0;labelPosition=right;verticalLabelPosition=middle;spacing=5;movable=1;resizable=1;rotatable=1;deletable=1;editable=1;locked=0;connectable=1;" parent="1" vertex="1">
                    <mxGeometry x="580" y="350" width="20" height="10" as="geometry"/>
                </mxCell>
                <mxCell id="0Wyq9TKgrHh_EbbWzSWt-85" value="reg_rs2_addr" style="html=1;shadow=0;dashed=0;align=left;verticalAlign=middle;shape=mxgraph.arrows2.arrow;dy=0;dx=10;notch=0;labelPosition=right;verticalLabelPosition=middle;spacing=5;movable=1;resizable=1;rotatable=1;deletable=1;editable=1;locked=0;connectable=1;" parent="1" vertex="1">
                    <mxGeometry x="580" y="370" width="20" height="10" as="geometry"/>
                </mxCell>
                <mxCell id="0Wyq9TKgrHh_EbbWzSWt-86" value="id_ex_reg_wr_addr" style="html=1;shadow=0;dashed=0;align=left;verticalAlign=middle;shape=mxgraph.arrows2.arrow;dy=0;dx=10;notch=0;labelPosition=right;verticalLabelPosition=middle;spacing=5;movable=1;resizable=1;rotatable=1;deletable=1;editable=1;locked=0;connectable=1;" parent="1" vertex="1">
                    <mxGeometry x="580" y="390" width="20" height="10" as="geometry"/>
                </mxCell>
                <mxCell id="0Wyq9TKgrHh_EbbWzSWt-87" value="id_ex_reg_wr_sig" style="html=1;shadow=0;dashed=0;align=left;verticalAlign=middle;shape=mxgraph.arrows2.arrow;dy=0;dx=10;notch=0;labelPosition=right;verticalLabelPosition=middle;spacing=5;movable=1;resizable=1;rotatable=1;deletable=1;editable=1;locked=0;connectable=1;" parent="1" vertex="1">
                    <mxGeometry x="580" y="410" width="20" height="10" as="geometry"/>
                </mxCell>
                <mxCell id="0Wyq9TKgrHh_EbbWzSWt-88" value="id_ex_data_dest" style="html=1;shadow=0;dashed=0;align=left;verticalAlign=middle;shape=mxgraph.arrows2.arrow;dy=0;dx=10;notch=0;labelPosition=right;verticalLabelPosition=middle;spacing=5;movable=1;resizable=1;rotatable=1;deletable=1;editable=1;locked=0;connectable=1;" parent="1" vertex="1">
                    <mxGeometry x="580" y="430" width="20" height="10" as="geometry"/>
                </mxCell>
                <mxCell id="0Wyq9TKgrHh_EbbWzSWt-296" style="edgeStyle=orthogonalEdgeStyle;rounded=0;orthogonalLoop=1;jettySize=auto;html=1;entryX=0;entryY=0.5;entryDx=0;entryDy=0;entryPerimeter=0;exitX=1;exitY=0.5;exitDx=0;exitDy=0;exitPerimeter=0;" parent="1" source="0Wyq9TKgrHh_EbbWzSWt-89" target="0Wyq9TKgrHh_EbbWzSWt-120" edge="1">
                    <mxGeometry relative="1" as="geometry">
                        <Array as="points">
                            <mxPoint x="920" y="540"/>
                            <mxPoint x="-160" y="540"/>
                            <mxPoint x="-160" y="85"/>
                        </Array>
                    </mxGeometry>
                </mxCell>
                <mxCell id="0Wyq9TKgrHh_EbbWzSWt-89" value="stall" style="html=1;shadow=0;dashed=0;align=right;verticalAlign=middle;shape=mxgraph.arrows2.arrow;dy=0;dx=10;notch=0;labelPosition=left;verticalLabelPosition=middle;spacing=5;movable=1;resizable=1;rotatable=1;deletable=1;editable=1;locked=0;connectable=1;" parent="1" vertex="1">
                    <mxGeometry x="900" y="350" width="20" height="10" as="geometry"/>
                </mxCell>
                <mxCell id="0Wyq9TKgrHh_EbbWzSWt-91" value="&lt;b&gt;BRANCH PREDICTOR&lt;/b&gt;" style="rounded=1;whiteSpace=wrap;html=1;container=0;" parent="1" vertex="1">
                    <mxGeometry x="-140" y="-400" width="180" height="250" as="geometry"/>
                </mxCell>
                <mxCell id="0Wyq9TKgrHh_EbbWzSWt-100" value="instruction" style="html=1;shadow=0;dashed=0;align=left;verticalAlign=middle;shape=mxgraph.arrows2.arrow;dy=0;dx=10;notch=0;labelPosition=right;verticalLabelPosition=middle;spacing=5;movable=1;resizable=1;rotatable=1;deletable=1;editable=1;locked=0;connectable=1;container=0;" parent="1" vertex="1">
                    <mxGeometry x="-150" y="-380" width="20" height="10" as="geometry"/>
                </mxCell>
                <mxCell id="0Wyq9TKgrHh_EbbWzSWt-101" value="&lt;div&gt;pc&lt;/div&gt;" style="html=1;shadow=0;dashed=0;align=left;verticalAlign=middle;shape=mxgraph.arrows2.arrow;dy=0;dx=10;notch=0;labelPosition=right;verticalLabelPosition=middle;spacing=5;movable=1;resizable=1;rotatable=1;deletable=1;editable=1;locked=0;connectable=1;container=0;" parent="1" vertex="1">
                    <mxGeometry x="-150" y="-360" width="20" height="10" as="geometry"/>
                </mxCell>
                <mxCell id="0Wyq9TKgrHh_EbbWzSWt-102" value="br_sig" style="html=1;shadow=0;dashed=0;align=left;verticalAlign=middle;shape=mxgraph.arrows2.arrow;dy=0;dx=10;notch=0;labelPosition=right;verticalLabelPosition=middle;spacing=5;movable=1;resizable=1;rotatable=1;deletable=1;editable=1;locked=0;connectable=1;container=0;" parent="1" vertex="1">
                    <mxGeometry x="-150" y="-340" width="20" height="10" as="geometry"/>
                </mxCell>
                <mxCell id="0Wyq9TKgrHh_EbbWzSWt-103" value="miss_pred" style="html=1;shadow=0;dashed=0;align=left;verticalAlign=middle;shape=mxgraph.arrows2.arrow;dy=0;dx=10;notch=0;labelPosition=right;verticalLabelPosition=middle;spacing=5;movable=1;resizable=1;rotatable=1;deletable=1;editable=1;locked=0;connectable=1;container=0;" parent="1" vertex="1">
                    <mxGeometry x="-150" y="-320" width="20" height="10" as="geometry"/>
                </mxCell>
                <mxCell id="0Wyq9TKgrHh_EbbWzSWt-104" value="br_pred" style="html=1;shadow=0;dashed=0;align=right;verticalAlign=middle;shape=mxgraph.arrows2.arrow;dy=0;dx=10;notch=0;labelPosition=left;verticalLabelPosition=middle;spacing=5;movable=1;resizable=1;rotatable=1;deletable=1;editable=1;locked=0;connectable=1;container=0;" parent="1" vertex="1">
                    <mxGeometry x="30" y="-360" width="20" height="10" as="geometry"/>
                </mxCell>
                <mxCell id="0Wyq9TKgrHh_EbbWzSWt-105" value="new_pc_pred" style="html=1;shadow=0;dashed=0;align=right;verticalAlign=middle;shape=mxgraph.arrows2.arrow;dy=0;dx=10;notch=0;labelPosition=left;verticalLabelPosition=middle;spacing=5;movable=1;resizable=1;rotatable=1;deletable=1;editable=1;locked=0;connectable=1;container=0;" parent="1" vertex="1">
                    <mxGeometry x="30" y="-380" width="20" height="10" as="geometry"/>
                </mxCell>
                <mxCell id="0Wyq9TKgrHh_EbbWzSWt-299" value="&lt;h1&gt;EX STAGE&lt;br&gt;&lt;/h1&gt;" style="rounded=1;whiteSpace=wrap;html=1;labelPosition=center;verticalLabelPosition=top;align=center;verticalAlign=bottom;movable=1;resizable=1;rotatable=1;deletable=1;editable=1;locked=0;connectable=1;arcSize=8;fillColor=#1ba1e2;strokeColor=#006EAF;fontColor=#ffffff;" parent="1" vertex="1">
                    <mxGeometry x="2500" y="-500" width="780" height="1065" as="geometry"/>
                </mxCell>
                <mxCell id="0Wyq9TKgrHh_EbbWzSWt-297" style="edgeStyle=orthogonalEdgeStyle;rounded=0;orthogonalLoop=1;jettySize=auto;html=1;entryX=0;entryY=0.5;entryDx=0;entryDy=0;entryPerimeter=0;" parent="1" source="0Wyq9TKgrHh_EbbWzSWt-234" target="0Wyq9TKgrHh_EbbWzSWt-245" edge="1">
                    <mxGeometry relative="1" as="geometry">
                        <Array as="points">
                            <mxPoint x="2450" y="625"/>
                            <mxPoint x="2450" y="-620"/>
                            <mxPoint x="-300" y="-620"/>
                            <mxPoint x="-300" y="-485"/>
                        </Array>
                    </mxGeometry>
                </mxCell>
                <mxCell id="0Wyq9TKgrHh_EbbWzSWt-293" style="edgeStyle=orthogonalEdgeStyle;rounded=0;orthogonalLoop=1;jettySize=auto;html=1;entryX=0;entryY=0.5;entryDx=0;entryDy=0;entryPerimeter=0;" parent="1" source="0Wyq9TKgrHh_EbbWzSWt-232" target="0Wyq9TKgrHh_EbbWzSWt-102" edge="1">
                    <mxGeometry relative="1" as="geometry">
                        <Array as="points">
                            <mxPoint x="2440" y="235"/>
                            <mxPoint x="2440" y="-600"/>
                            <mxPoint x="-190" y="-600"/>
                            <mxPoint x="-190" y="-335"/>
                        </Array>
                    </mxGeometry>
                </mxCell>
                <mxCell id="0Wyq9TKgrHh_EbbWzSWt-183" value="&lt;b&gt;ID_EX REGISTER&lt;/b&gt;" style="rounded=1;whiteSpace=wrap;html=1;arcSize=8;" parent="1" vertex="1">
                    <mxGeometry x="2160" y="-500" width="240" height="1290" as="geometry"/>
                </mxCell>
                <mxCell id="0Wyq9TKgrHh_EbbWzSWt-197" value="&lt;div&gt;pc&lt;/div&gt;" style="html=1;shadow=0;dashed=0;align=left;verticalAlign=middle;shape=mxgraph.arrows2.arrow;dy=0;dx=10;notch=0;labelPosition=right;verticalLabelPosition=middle;spacing=5;movable=1;resizable=1;rotatable=1;deletable=1;editable=1;locked=0;connectable=1;" parent="1" vertex="1">
                    <mxGeometry x="2150" y="-480" width="20" height="10" as="geometry"/>
                </mxCell>
                <mxCell id="0Wyq9TKgrHh_EbbWzSWt-199" value="pc_rs1" style="html=1;shadow=0;dashed=0;align=left;verticalAlign=middle;shape=mxgraph.arrows2.arrow;dy=0;dx=10;notch=0;labelPosition=right;verticalLabelPosition=middle;spacing=5;movable=1;resizable=1;rotatable=1;deletable=1;editable=1;locked=0;connectable=1;" parent="1" vertex="1">
                    <mxGeometry x="2150" y="-35" width="20" height="10" as="geometry"/>
                </mxCell>
                <mxCell id="0Wyq9TKgrHh_EbbWzSWt-200" value="imm_rs2" style="html=1;shadow=0;dashed=0;align=left;verticalAlign=middle;shape=mxgraph.arrows2.arrow;dy=0;dx=10;notch=0;labelPosition=right;verticalLabelPosition=middle;spacing=5;movable=1;resizable=1;rotatable=1;deletable=1;editable=1;locked=0;connectable=1;" parent="1" vertex="1">
                    <mxGeometry x="2150" y="105" width="20" height="10" as="geometry"/>
                </mxCell>
                <mxCell id="0Wyq9TKgrHh_EbbWzSWt-203" value="rs2" style="html=1;shadow=0;dashed=0;align=left;verticalAlign=middle;shape=mxgraph.arrows2.arrow;dy=0;dx=10;notch=0;labelPosition=right;verticalLabelPosition=middle;spacing=5;movable=1;resizable=1;rotatable=1;deletable=1;editable=1;locked=0;connectable=1;" parent="1" vertex="1">
                    <mxGeometry x="2150" y="220" width="20" height="10" as="geometry"/>
                </mxCell>
                <mxCell id="0Wyq9TKgrHh_EbbWzSWt-205" value="&lt;div&gt;br_sig&lt;/div&gt;" style="html=1;shadow=0;dashed=0;align=left;verticalAlign=middle;shape=mxgraph.arrows2.arrow;dy=0;dx=10;notch=0;labelPosition=right;verticalLabelPosition=middle;spacing=5;movable=1;resizable=1;rotatable=1;deletable=1;editable=1;locked=0;connectable=1;" parent="1" vertex="1">
                    <mxGeometry x="2150" y="-390" width="20" height="10" as="geometry"/>
                </mxCell>
                <mxCell id="0Wyq9TKgrHh_EbbWzSWt-207" value="&lt;div&gt;br_op&lt;/div&gt;" style="html=1;shadow=0;dashed=0;align=left;verticalAlign=middle;shape=mxgraph.arrows2.arrow;dy=0;dx=10;notch=0;labelPosition=right;verticalLabelPosition=middle;spacing=5;movable=1;resizable=1;rotatable=1;deletable=1;editable=1;locked=0;connectable=1;" parent="1" vertex="1">
                    <mxGeometry x="2150" y="-370" width="20" height="10" as="geometry"/>
                </mxCell>
                <mxCell id="0Wyq9TKgrHh_EbbWzSWt-208" value="lsu_op" style="html=1;shadow=0;dashed=0;align=left;verticalAlign=middle;shape=mxgraph.arrows2.arrow;dy=0;dx=10;notch=0;labelPosition=right;verticalLabelPosition=middle;spacing=5;movable=1;resizable=1;rotatable=1;deletable=1;editable=1;locked=0;connectable=1;" parent="1" vertex="1">
                    <mxGeometry x="2150" y="-350" width="20" height="10" as="geometry"/>
                </mxCell>
                <mxCell id="0Wyq9TKgrHh_EbbWzSWt-209" value="alu_op" style="html=1;shadow=0;dashed=0;align=left;verticalAlign=middle;shape=mxgraph.arrows2.arrow;dy=0;dx=10;notch=0;labelPosition=right;verticalLabelPosition=middle;spacing=5;movable=1;resizable=1;rotatable=1;deletable=1;editable=1;locked=0;connectable=1;" parent="1" vertex="1">
                    <mxGeometry x="2150" y="-330" width="20" height="10" as="geometry"/>
                </mxCell>
                <mxCell id="0Wyq9TKgrHh_EbbWzSWt-213" value="data_dest" style="html=1;shadow=0;dashed=0;align=left;verticalAlign=middle;shape=mxgraph.arrows2.arrow;dy=0;dx=10;notch=0;labelPosition=right;verticalLabelPosition=middle;spacing=5;movable=1;resizable=1;rotatable=1;deletable=1;editable=1;locked=0;connectable=1;" parent="1" vertex="1">
                    <mxGeometry x="2150" y="-290" width="20" height="10" as="geometry"/>
                </mxCell>
                <mxCell id="0Wyq9TKgrHh_EbbWzSWt-215" value="&lt;div&gt;imm&lt;/div&gt;" style="html=1;shadow=0;dashed=0;align=left;verticalAlign=middle;shape=mxgraph.arrows2.arrow;dy=0;dx=10;notch=0;labelPosition=right;verticalLabelPosition=middle;spacing=5;movable=1;resizable=1;rotatable=1;deletable=1;editable=1;locked=0;connectable=1;" parent="1" vertex="1">
                    <mxGeometry x="2150" y="-270" width="20" height="10" as="geometry"/>
                </mxCell>
                <mxCell id="0Wyq9TKgrHh_EbbWzSWt-217" value="reg_wr_addr" style="html=1;shadow=0;dashed=0;align=left;verticalAlign=middle;shape=mxgraph.arrows2.arrow;dy=0;dx=10;notch=0;labelPosition=right;verticalLabelPosition=middle;spacing=5;movable=1;resizable=1;rotatable=1;deletable=1;editable=1;locked=0;connectable=1;" parent="1" vertex="1">
                    <mxGeometry x="2150" y="-160" width="20" height="10" as="geometry"/>
                </mxCell>
                <mxCell id="0Wyq9TKgrHh_EbbWzSWt-219" value="reg_wr_sig" style="html=1;shadow=0;dashed=0;align=left;verticalAlign=middle;shape=mxgraph.arrows2.arrow;dy=0;dx=10;notch=0;labelPosition=right;verticalLabelPosition=middle;spacing=5;movable=1;resizable=1;rotatable=1;deletable=1;editable=1;locked=0;connectable=1;" parent="1" vertex="1">
                    <mxGeometry x="2150" y="-140" width="20" height="10" as="geometry"/>
                </mxCell>
                <mxCell id="0Wyq9TKgrHh_EbbWzSWt-221" value="mem_wr_sig" style="html=1;shadow=0;dashed=0;align=left;verticalAlign=middle;shape=mxgraph.arrows2.arrow;dy=0;dx=10;notch=0;labelPosition=right;verticalLabelPosition=middle;spacing=5;movable=1;resizable=1;rotatable=1;deletable=1;editable=1;locked=0;connectable=1;" parent="1" vertex="1">
                    <mxGeometry x="2150" y="-120" width="20" height="10" as="geometry"/>
                </mxCell>
                <mxCell id="0Wyq9TKgrHh_EbbWzSWt-223" value="br_pred" style="html=1;shadow=0;dashed=0;align=left;verticalAlign=middle;shape=mxgraph.arrows2.arrow;dy=0;dx=10;notch=0;labelPosition=right;verticalLabelPosition=middle;spacing=5;movable=1;resizable=1;rotatable=1;deletable=1;editable=1;locked=0;connectable=1;" parent="1" vertex="1">
                    <mxGeometry x="2150" y="-460" width="20" height="10" as="geometry"/>
                </mxCell>
                <mxCell id="0Wyq9TKgrHh_EbbWzSWt-228" value="flush" style="html=1;shadow=0;dashed=0;align=center;verticalAlign=bottom;shape=mxgraph.arrows2.arrow;dy=0;dx=10;notch=0;labelPosition=center;verticalLabelPosition=top;spacing=5;movable=1;resizable=1;rotatable=1;deletable=1;editable=1;locked=0;connectable=1;direction=north;" parent="1" vertex="1">
                    <mxGeometry x="2220" y="780" width="10" height="20" as="geometry"/>
                </mxCell>
                <mxCell id="0Wyq9TKgrHh_EbbWzSWt-229" value="&lt;div&gt;stall&lt;/div&gt;" style="html=1;shadow=0;dashed=0;align=center;verticalAlign=bottom;shape=mxgraph.arrows2.arrow;dy=0;dx=10;notch=0;labelPosition=center;verticalLabelPosition=top;spacing=5;movable=1;resizable=1;rotatable=1;deletable=1;editable=1;locked=0;connectable=1;direction=north;" parent="1" vertex="1">
                    <mxGeometry x="2310" y="780" width="10" height="20" as="geometry"/>
                </mxCell>
                <mxCell id="0Wyq9TKgrHh_EbbWzSWt-287" style="edgeStyle=orthogonalEdgeStyle;rounded=0;orthogonalLoop=1;jettySize=auto;html=1;entryX=0;entryY=0.5;entryDx=0;entryDy=0;entryPerimeter=0;" parent="1" source="0Wyq9TKgrHh_EbbWzSWt-232" target="0Wyq9TKgrHh_EbbWzSWt-280" edge="1">
                    <mxGeometry relative="1" as="geometry"/>
                </mxCell>
                <mxCell id="0Wyq9TKgrHh_EbbWzSWt-232" value="&lt;div&gt;br_sig&lt;/div&gt;" style="html=1;shadow=0;dashed=0;align=right;verticalAlign=middle;shape=mxgraph.arrows2.arrow;dy=0;dx=10;notch=0;labelPosition=left;verticalLabelPosition=middle;spacing=5;movable=1;resizable=1;rotatable=1;deletable=1;editable=1;locked=0;connectable=1;" parent="1" vertex="1">
                    <mxGeometry x="2390" y="230" width="20" height="10" as="geometry"/>
                </mxCell>
                <mxCell id="0Wyq9TKgrHh_EbbWzSWt-284" style="edgeStyle=orthogonalEdgeStyle;rounded=0;orthogonalLoop=1;jettySize=auto;html=1;entryX=0;entryY=0.5;entryDx=0;entryDy=0;entryPerimeter=0;" parent="1" source="0Wyq9TKgrHh_EbbWzSWt-233" target="0Wyq9TKgrHh_EbbWzSWt-274" edge="1">
                    <mxGeometry relative="1" as="geometry"/>
                </mxCell>
                <mxCell id="0Wyq9TKgrHh_EbbWzSWt-233" value="pc" style="html=1;shadow=0;dashed=0;align=right;verticalAlign=middle;shape=mxgraph.arrows2.arrow;dy=0;dx=10;notch=0;labelPosition=left;verticalLabelPosition=middle;spacing=5;movable=1;resizable=1;rotatable=1;deletable=1;editable=1;locked=0;connectable=1;" parent="1" vertex="1">
                    <mxGeometry x="2390" y="190" width="20" height="10" as="geometry"/>
                </mxCell>
                <mxCell id="0Wyq9TKgrHh_EbbWzSWt-234" value="br_pred" style="html=1;shadow=0;dashed=0;align=right;verticalAlign=middle;shape=mxgraph.arrows2.arrow;dy=0;dx=10;notch=0;labelPosition=left;verticalLabelPosition=middle;spacing=5;movable=1;resizable=1;rotatable=1;deletable=1;editable=1;locked=0;connectable=1;direction=east;" parent="1" vertex="1">
                    <mxGeometry x="2390" y="620" width="20" height="10" as="geometry"/>
                </mxCell>
                <mxCell id="0Wyq9TKgrHh_EbbWzSWt-288" style="edgeStyle=orthogonalEdgeStyle;rounded=0;orthogonalLoop=1;jettySize=auto;html=1;entryX=0;entryY=0.5;entryDx=0;entryDy=0;entryPerimeter=0;" parent="1" source="0Wyq9TKgrHh_EbbWzSWt-235" target="0Wyq9TKgrHh_EbbWzSWt-281" edge="1">
                    <mxGeometry relative="1" as="geometry"/>
                </mxCell>
                <mxCell id="0Wyq9TKgrHh_EbbWzSWt-235" value="&lt;div&gt;br_op&lt;/div&gt;" style="html=1;shadow=0;dashed=0;align=right;verticalAlign=middle;shape=mxgraph.arrows2.arrow;dy=0;dx=10;notch=0;labelPosition=left;verticalLabelPosition=middle;spacing=5;movable=1;resizable=1;rotatable=1;deletable=1;editable=1;locked=0;connectable=1;" parent="1" vertex="1">
                    <mxGeometry x="2390" y="250" width="20" height="10" as="geometry"/>
                </mxCell>
                <mxCell id="0Wyq9TKgrHh_EbbWzSWt-316" style="edgeStyle=orthogonalEdgeStyle;rounded=0;orthogonalLoop=1;jettySize=auto;html=1;entryX=0;entryY=0.5;entryDx=0;entryDy=0;entryPerimeter=0;" parent="1" source="0Wyq9TKgrHh_EbbWzSWt-236" target="0Wyq9TKgrHh_EbbWzSWt-315" edge="1">
                    <mxGeometry relative="1" as="geometry"/>
                </mxCell>
                <mxCell id="0Wyq9TKgrHh_EbbWzSWt-236" value="lsu_op" style="html=1;shadow=0;dashed=0;align=right;verticalAlign=middle;shape=mxgraph.arrows2.arrow;dy=0;dx=10;notch=0;labelPosition=left;verticalLabelPosition=middle;spacing=5;movable=1;resizable=1;rotatable=1;deletable=1;editable=1;locked=0;connectable=1;" parent="1" vertex="1">
                    <mxGeometry x="2390" y="740" width="20" height="10" as="geometry"/>
                </mxCell>
                <mxCell id="0Wyq9TKgrHh_EbbWzSWt-262" style="edgeStyle=orthogonalEdgeStyle;rounded=0;orthogonalLoop=1;jettySize=auto;html=1;entryX=0;entryY=0.5;entryDx=0;entryDy=0;entryPerimeter=0;" parent="1" source="0Wyq9TKgrHh_EbbWzSWt-237" target="0Wyq9TKgrHh_EbbWzSWt-259" edge="1">
                    <mxGeometry relative="1" as="geometry"/>
                </mxCell>
                <mxCell id="0Wyq9TKgrHh_EbbWzSWt-237" value="alu_op" style="html=1;shadow=0;dashed=0;align=right;verticalAlign=middle;shape=mxgraph.arrows2.arrow;dy=0;dx=10;notch=0;labelPosition=left;verticalLabelPosition=middle;spacing=5;movable=1;resizable=1;rotatable=1;deletable=1;editable=1;locked=0;connectable=1;" parent="1" vertex="1">
                    <mxGeometry x="2390" y="-140" width="20" height="10" as="geometry"/>
                </mxCell>
                <mxCell id="0Wyq9TKgrHh_EbbWzSWt-318" style="edgeStyle=orthogonalEdgeStyle;rounded=0;orthogonalLoop=1;jettySize=auto;html=1;entryX=0;entryY=0.5;entryDx=0;entryDy=0;entryPerimeter=0;" parent="1" source="0Wyq9TKgrHh_EbbWzSWt-238" target="0Wyq9TKgrHh_EbbWzSWt-317" edge="1">
                    <mxGeometry relative="1" as="geometry"/>
                </mxCell>
                <mxCell id="0Wyq9TKgrHh_EbbWzSWt-238" value="data_dest" style="html=1;shadow=0;dashed=0;align=right;verticalAlign=middle;shape=mxgraph.arrows2.arrow;dy=0;dx=10;notch=0;labelPosition=left;verticalLabelPosition=middle;spacing=5;movable=1;resizable=1;rotatable=1;deletable=1;editable=1;locked=0;connectable=1;" parent="1" vertex="1">
                    <mxGeometry x="2390" y="640" width="20" height="10" as="geometry"/>
                </mxCell>
                <mxCell id="0Wyq9TKgrHh_EbbWzSWt-260" style="edgeStyle=orthogonalEdgeStyle;rounded=0;orthogonalLoop=1;jettySize=auto;html=1;entryX=0;entryY=0.5;entryDx=0;entryDy=0;entryPerimeter=0;" parent="1" source="0Wyq9TKgrHh_EbbWzSWt-239" target="0Wyq9TKgrHh_EbbWzSWt-257" edge="1">
                    <mxGeometry relative="1" as="geometry"/>
                </mxCell>
                <mxCell id="0Wyq9TKgrHh_EbbWzSWt-239" value="pc_rs1" style="html=1;shadow=0;dashed=0;align=right;verticalAlign=middle;shape=mxgraph.arrows2.arrow;dy=0;dx=10;notch=0;labelPosition=left;verticalLabelPosition=middle;spacing=5;movable=1;resizable=1;rotatable=1;deletable=1;editable=1;locked=0;connectable=1;" parent="1" vertex="1">
                    <mxGeometry x="2390" y="-180" width="20" height="10" as="geometry"/>
                </mxCell>
                <mxCell id="0Wyq9TKgrHh_EbbWzSWt-261" style="edgeStyle=orthogonalEdgeStyle;rounded=0;orthogonalLoop=1;jettySize=auto;html=1;entryX=0;entryY=0.5;entryDx=0;entryDy=0;entryPerimeter=0;" parent="1" source="0Wyq9TKgrHh_EbbWzSWt-240" target="0Wyq9TKgrHh_EbbWzSWt-258" edge="1">
                    <mxGeometry relative="1" as="geometry"/>
                </mxCell>
                <mxCell id="0Wyq9TKgrHh_EbbWzSWt-240" value="imm_rs2" style="html=1;shadow=0;dashed=0;align=right;verticalAlign=middle;shape=mxgraph.arrows2.arrow;dy=0;dx=10;notch=0;labelPosition=left;verticalLabelPosition=middle;spacing=5;movable=1;resizable=1;rotatable=1;deletable=1;editable=1;locked=0;connectable=1;" parent="1" vertex="1">
                    <mxGeometry x="2390" y="-160" width="20" height="10" as="geometry"/>
                </mxCell>
                <mxCell id="0Wyq9TKgrHh_EbbWzSWt-313" style="edgeStyle=orthogonalEdgeStyle;rounded=0;orthogonalLoop=1;jettySize=auto;html=1;entryX=0;entryY=0.5;entryDx=0;entryDy=0;entryPerimeter=0;" parent="1" source="0Wyq9TKgrHh_EbbWzSWt-241" target="0Wyq9TKgrHh_EbbWzSWt-312" edge="1">
                    <mxGeometry relative="1" as="geometry"/>
                </mxCell>
                <mxCell id="0Wyq9TKgrHh_EbbWzSWt-241" value="rs2" style="html=1;shadow=0;dashed=0;align=right;verticalAlign=middle;shape=mxgraph.arrows2.arrow;dy=0;dx=10;notch=0;labelPosition=left;verticalLabelPosition=middle;spacing=5;movable=1;resizable=1;rotatable=1;deletable=1;editable=1;locked=0;connectable=1;" parent="1" vertex="1">
                    <mxGeometry x="2390" y="720" width="20" height="10" as="geometry"/>
                </mxCell>
                <mxCell id="0Wyq9TKgrHh_EbbWzSWt-320" style="edgeStyle=orthogonalEdgeStyle;rounded=0;orthogonalLoop=1;jettySize=auto;html=1;entryX=0;entryY=0.5;entryDx=0;entryDy=0;entryPerimeter=0;" parent="1" source="0Wyq9TKgrHh_EbbWzSWt-242" target="0Wyq9TKgrHh_EbbWzSWt-319" edge="1">
                    <mxGeometry relative="1" as="geometry"/>
                </mxCell>
                <mxCell id="0Wyq9TKgrHh_EbbWzSWt-242" value="reg_wr_addr" style="html=1;shadow=0;dashed=0;align=right;verticalAlign=middle;shape=mxgraph.arrows2.arrow;dy=0;dx=10;notch=0;labelPosition=left;verticalLabelPosition=middle;spacing=5;movable=1;resizable=1;rotatable=1;deletable=1;editable=1;locked=0;connectable=1;" parent="1" vertex="1">
                    <mxGeometry x="2390" y="660" width="20" height="10" as="geometry"/>
                </mxCell>
                <mxCell id="0Wyq9TKgrHh_EbbWzSWt-322" style="edgeStyle=orthogonalEdgeStyle;rounded=0;orthogonalLoop=1;jettySize=auto;html=1;entryX=0;entryY=0.5;entryDx=0;entryDy=0;entryPerimeter=0;" parent="1" source="0Wyq9TKgrHh_EbbWzSWt-243" target="0Wyq9TKgrHh_EbbWzSWt-321" edge="1">
                    <mxGeometry relative="1" as="geometry"/>
                </mxCell>
                <mxCell id="0Wyq9TKgrHh_EbbWzSWt-243" value="reg_wr_sig" style="html=1;shadow=0;dashed=0;align=right;verticalAlign=middle;shape=mxgraph.arrows2.arrow;dy=0;dx=10;notch=0;labelPosition=left;verticalLabelPosition=middle;spacing=5;movable=1;resizable=1;rotatable=1;deletable=1;editable=1;locked=0;connectable=1;" parent="1" vertex="1">
                    <mxGeometry x="2390" y="680" width="20" height="10" as="geometry"/>
                </mxCell>
                <mxCell id="0Wyq9TKgrHh_EbbWzSWt-324" style="edgeStyle=orthogonalEdgeStyle;rounded=0;orthogonalLoop=1;jettySize=auto;html=1;entryX=0;entryY=0.5;entryDx=0;entryDy=0;entryPerimeter=0;" parent="1" source="0Wyq9TKgrHh_EbbWzSWt-244" target="0Wyq9TKgrHh_EbbWzSWt-323" edge="1">
                    <mxGeometry relative="1" as="geometry"/>
                </mxCell>
                <mxCell id="0Wyq9TKgrHh_EbbWzSWt-244" value="mem_wr_sig" style="html=1;shadow=0;dashed=0;align=right;verticalAlign=middle;shape=mxgraph.arrows2.arrow;dy=0;dx=10;notch=0;labelPosition=left;verticalLabelPosition=middle;spacing=5;movable=1;resizable=1;rotatable=1;deletable=1;editable=1;locked=0;connectable=1;" parent="1" vertex="1">
                    <mxGeometry x="2390" y="700" width="20" height="10" as="geometry"/>
                </mxCell>
                <mxCell id="0Wyq9TKgrHh_EbbWzSWt-286" style="edgeStyle=orthogonalEdgeStyle;rounded=0;orthogonalLoop=1;jettySize=auto;html=1;entryX=0;entryY=0.5;entryDx=0;entryDy=0;entryPerimeter=0;" parent="1" source="0Wyq9TKgrHh_EbbWzSWt-252" target="0Wyq9TKgrHh_EbbWzSWt-277" edge="1">
                    <mxGeometry relative="1" as="geometry"/>
                </mxCell>
                <mxCell id="0Wyq9TKgrHh_EbbWzSWt-252" value="&lt;div&gt;imm&lt;/div&gt;" style="html=1;shadow=0;dashed=0;align=right;verticalAlign=middle;shape=mxgraph.arrows2.arrow;dy=0;dx=10;notch=0;labelPosition=left;verticalLabelPosition=middle;spacing=5;movable=1;resizable=1;rotatable=1;deletable=1;editable=1;locked=0;connectable=1;" parent="1" vertex="1">
                    <mxGeometry x="2390" y="210" width="20" height="10" as="geometry"/>
                </mxCell>
                <mxCell id="0Wyq9TKgrHh_EbbWzSWt-225" value="&lt;b&gt;ALU&lt;/b&gt;" style="rounded=1;whiteSpace=wrap;html=1;" parent="1" vertex="1">
                    <mxGeometry x="2590" y="-200" width="290" height="170" as="geometry"/>
                </mxCell>
                <mxCell id="0Wyq9TKgrHh_EbbWzSWt-257" value="pc_rs1" style="html=1;shadow=0;dashed=0;align=left;verticalAlign=middle;shape=mxgraph.arrows2.arrow;dy=0;dx=10;notch=0;labelPosition=right;verticalLabelPosition=middle;spacing=5;movable=1;resizable=1;rotatable=1;deletable=1;editable=1;locked=0;connectable=1;" parent="1" vertex="1">
                    <mxGeometry x="2580" y="-180" width="20" height="10" as="geometry"/>
                </mxCell>
                <mxCell id="0Wyq9TKgrHh_EbbWzSWt-258" value="imm_rs2" style="html=1;shadow=0;dashed=0;align=left;verticalAlign=middle;shape=mxgraph.arrows2.arrow;dy=0;dx=10;notch=0;labelPosition=right;verticalLabelPosition=middle;spacing=5;movable=1;resizable=1;rotatable=1;deletable=1;editable=1;locked=0;connectable=1;" parent="1" vertex="1">
                    <mxGeometry x="2580" y="-160" width="20" height="10" as="geometry"/>
                </mxCell>
                <mxCell id="0Wyq9TKgrHh_EbbWzSWt-259" value="alu_op" style="html=1;shadow=0;dashed=0;align=left;verticalAlign=middle;shape=mxgraph.arrows2.arrow;dy=0;dx=10;notch=0;labelPosition=right;verticalLabelPosition=middle;spacing=5;movable=1;resizable=1;rotatable=1;deletable=1;editable=1;locked=0;connectable=1;" parent="1" vertex="1">
                    <mxGeometry x="2580" y="-140" width="20" height="10" as="geometry"/>
                </mxCell>
                <mxCell id="0Wyq9TKgrHh_EbbWzSWt-283" style="edgeStyle=orthogonalEdgeStyle;rounded=0;orthogonalLoop=1;jettySize=auto;html=1;entryX=0;entryY=0.5;entryDx=0;entryDy=0;entryPerimeter=0;" parent="1" source="0Wyq9TKgrHh_EbbWzSWt-263" target="0Wyq9TKgrHh_EbbWzSWt-282" edge="1">
                    <mxGeometry relative="1" as="geometry">
                        <Array as="points">
                            <mxPoint x="2910" y="-175"/>
                            <mxPoint x="2910" y="130"/>
                            <mxPoint x="2735" y="130"/>
                        </Array>
                    </mxGeometry>
                </mxCell>
                <mxCell id="0Wyq9TKgrHh_EbbWzSWt-309" style="edgeStyle=orthogonalEdgeStyle;rounded=0;orthogonalLoop=1;jettySize=auto;html=1;entryX=0;entryY=0.5;entryDx=0;entryDy=0;entryPerimeter=0;" parent="1" source="0Wyq9TKgrHh_EbbWzSWt-263" target="0Wyq9TKgrHh_EbbWzSWt-308" edge="1">
                    <mxGeometry relative="1" as="geometry"/>
                </mxCell>
                <mxCell id="0Wyq9TKgrHh_EbbWzSWt-263" value="result" style="html=1;shadow=0;dashed=0;align=right;verticalAlign=middle;shape=mxgraph.arrows2.arrow;dy=0;dx=10;notch=0;labelPosition=left;verticalLabelPosition=middle;spacing=5;movable=1;resizable=1;rotatable=1;deletable=1;editable=1;locked=0;connectable=1;" parent="1" vertex="1">
                    <mxGeometry x="2870" y="-180" width="20" height="10" as="geometry"/>
                </mxCell>
                <mxCell id="0Wyq9TKgrHh_EbbWzSWt-273" value="&lt;b&gt;BRANCH UNIT&lt;br&gt;&lt;/b&gt;" style="rounded=1;whiteSpace=wrap;html=1;" parent="1" vertex="1">
                    <mxGeometry x="2600" y="160" width="270" height="180" as="geometry"/>
                </mxCell>
                <mxCell id="0Wyq9TKgrHh_EbbWzSWt-274" value="pc" style="html=1;shadow=0;dashed=0;align=left;verticalAlign=middle;shape=mxgraph.arrows2.arrow;dy=0;dx=10;notch=0;labelPosition=right;verticalLabelPosition=middle;spacing=5;movable=1;resizable=1;rotatable=1;deletable=1;editable=1;locked=0;connectable=1;" parent="1" vertex="1">
                    <mxGeometry x="2590" y="190" width="20" height="10" as="geometry"/>
                </mxCell>
                <mxCell id="0Wyq9TKgrHh_EbbWzSWt-277" value="&lt;div&gt;imm&lt;/div&gt;" style="html=1;shadow=0;dashed=0;align=left;verticalAlign=middle;shape=mxgraph.arrows2.arrow;dy=0;dx=10;notch=0;labelPosition=right;verticalLabelPosition=middle;spacing=5;movable=1;resizable=1;rotatable=1;deletable=1;editable=1;locked=0;connectable=1;" parent="1" vertex="1">
                    <mxGeometry x="2590" y="210" width="20" height="10" as="geometry"/>
                </mxCell>
                <mxCell id="0Wyq9TKgrHh_EbbWzSWt-280" value="&lt;div&gt;br_sig&lt;/div&gt;" style="html=1;shadow=0;dashed=0;align=left;verticalAlign=middle;shape=mxgraph.arrows2.arrow;dy=0;dx=10;notch=0;labelPosition=right;verticalLabelPosition=middle;spacing=5;movable=1;resizable=1;rotatable=1;deletable=1;editable=1;locked=0;connectable=1;" parent="1" vertex="1">
                    <mxGeometry x="2590" y="230" width="20" height="10" as="geometry"/>
                </mxCell>
                <mxCell id="0Wyq9TKgrHh_EbbWzSWt-281" value="&lt;div&gt;br_op&lt;/div&gt;" style="html=1;shadow=0;dashed=0;align=left;verticalAlign=middle;shape=mxgraph.arrows2.arrow;dy=0;dx=10;notch=0;labelPosition=right;verticalLabelPosition=middle;spacing=5;movable=1;resizable=1;rotatable=1;deletable=1;editable=1;locked=0;connectable=1;" parent="1" vertex="1">
                    <mxGeometry x="2590" y="250" width="20" height="10" as="geometry"/>
                </mxCell>
                <mxCell id="0Wyq9TKgrHh_EbbWzSWt-282" value="alu_result" style="html=1;shadow=0;dashed=0;align=center;verticalAlign=top;shape=mxgraph.arrows2.arrow;dy=0;dx=10;notch=0;labelPosition=center;verticalLabelPosition=bottom;spacing=5;movable=1;resizable=1;rotatable=1;deletable=1;editable=1;locked=0;connectable=1;direction=south;" parent="1" vertex="1">
                    <mxGeometry x="2730" y="150" width="10" height="20" as="geometry"/>
                </mxCell>
                <mxCell id="0Wyq9TKgrHh_EbbWzSWt-289" value="new_pc" style="html=1;shadow=0;dashed=0;align=right;verticalAlign=middle;shape=mxgraph.arrows2.arrow;dy=0;dx=10;notch=0;labelPosition=left;verticalLabelPosition=middle;spacing=5;movable=1;resizable=1;rotatable=1;deletable=1;editable=1;locked=0;connectable=1;" parent="1" vertex="1">
                    <mxGeometry x="2860" y="190" width="20" height="10" as="geometry"/>
                </mxCell>
                <mxCell id="0Wyq9TKgrHh_EbbWzSWt-290" value="br_taken" style="html=1;shadow=0;dashed=0;align=right;verticalAlign=middle;shape=mxgraph.arrows2.arrow;dy=0;dx=10;notch=0;labelPosition=left;verticalLabelPosition=middle;spacing=5;movable=1;resizable=1;rotatable=1;deletable=1;editable=1;locked=0;connectable=1;" parent="1" vertex="1">
                    <mxGeometry x="2860" y="210" width="20" height="10" as="geometry"/>
                </mxCell>
                <mxCell id="0Wyq9TKgrHh_EbbWzSWt-291" value="pc_plus4" style="html=1;shadow=0;dashed=0;align=right;verticalAlign=middle;shape=mxgraph.arrows2.arrow;dy=0;dx=10;notch=0;labelPosition=left;verticalLabelPosition=middle;spacing=5;movable=1;resizable=1;rotatable=1;deletable=1;editable=1;locked=0;connectable=1;" parent="1" vertex="1">
                    <mxGeometry x="2860" y="230" width="20" height="10" as="geometry"/>
                </mxCell>
                <mxCell id="0Wyq9TKgrHh_EbbWzSWt-268" style="edgeStyle=orthogonalEdgeStyle;rounded=0;orthogonalLoop=1;jettySize=auto;html=1;entryX=0;entryY=0.5;entryDx=0;entryDy=0;entryPerimeter=0;" parent="1" source="0Wyq9TKgrHh_EbbWzSWt-263" target="0Wyq9TKgrHh_EbbWzSWt-59" edge="1">
                    <mxGeometry relative="1" as="geometry">
                        <Array as="points">
                            <mxPoint x="2900" y="-175"/>
                            <mxPoint x="2900" y="990"/>
                            <mxPoint x="1500" y="990"/>
                            <mxPoint x="1500" y="365"/>
                        </Array>
                    </mxGeometry>
                </mxCell>
                <mxCell id="0Wyq9TKgrHh_EbbWzSWt-295" style="edgeStyle=orthogonalEdgeStyle;rounded=0;orthogonalLoop=1;jettySize=auto;html=1;entryX=0;entryY=0.5;entryDx=0;entryDy=0;entryPerimeter=0;" parent="1" source="0Wyq9TKgrHh_EbbWzSWt-289" target="0Wyq9TKgrHh_EbbWzSWt-116" edge="1">
                    <mxGeometry relative="1" as="geometry">
                        <Array as="points">
                            <mxPoint x="2950" y="195"/>
                            <mxPoint x="2950" y="-610"/>
                            <mxPoint x="-200" y="-610"/>
                            <mxPoint x="-200" y="5"/>
                        </Array>
                    </mxGeometry>
                </mxCell>
                <mxCell id="0Wyq9TKgrHh_EbbWzSWt-298" style="edgeStyle=orthogonalEdgeStyle;rounded=0;orthogonalLoop=1;jettySize=auto;html=1;entryX=0;entryY=0.5;entryDx=0;entryDy=0;entryPerimeter=0;" parent="1" source="0Wyq9TKgrHh_EbbWzSWt-290" target="0Wyq9TKgrHh_EbbWzSWt-247" edge="1">
                    <mxGeometry relative="1" as="geometry">
                        <Array as="points">
                            <mxPoint x="2960" y="215"/>
                            <mxPoint x="2960" y="-630"/>
                            <mxPoint x="-310" y="-630"/>
                            <mxPoint x="-310" y="-465"/>
                        </Array>
                    </mxGeometry>
                </mxCell>
                <mxCell id="0Wyq9TKgrHh_EbbWzSWt-362" style="edgeStyle=orthogonalEdgeStyle;rounded=0;orthogonalLoop=1;jettySize=auto;html=1;entryX=0;entryY=0.5;entryDx=0;entryDy=0;entryPerimeter=0;" parent="1" source="0Wyq9TKgrHh_EbbWzSWt-336" target="0Wyq9TKgrHh_EbbWzSWt-71" edge="1">
                    <mxGeometry relative="1" as="geometry">
                        <Array as="points">
                            <mxPoint x="4420" y="-45"/>
                            <mxPoint x="4420" y="1060"/>
                            <mxPoint x="1440" y="1060"/>
                            <mxPoint x="1440" y="595"/>
                        </Array>
                    </mxGeometry>
                </mxCell>
                <mxCell id="0Wyq9TKgrHh_EbbWzSWt-359" style="edgeStyle=orthogonalEdgeStyle;rounded=0;orthogonalLoop=1;jettySize=auto;html=1;entryX=0;entryY=0.5;entryDx=0;entryDy=0;entryPerimeter=0;" parent="1" source="0Wyq9TKgrHh_EbbWzSWt-346" target="0Wyq9TKgrHh_EbbWzSWt-69" edge="1">
                    <mxGeometry relative="1" as="geometry">
                        <Array as="points">
                            <mxPoint x="3650" y="-25"/>
                            <mxPoint x="3650" y="1040"/>
                            <mxPoint x="1460" y="1040"/>
                            <mxPoint x="1460" y="555"/>
                        </Array>
                    </mxGeometry>
                </mxCell>
                <mxCell id="0Wyq9TKgrHh_EbbWzSWt-356" style="edgeStyle=orthogonalEdgeStyle;rounded=0;orthogonalLoop=1;jettySize=auto;html=1;entryX=0;entryY=0.5;entryDx=0;entryDy=0;entryPerimeter=0;" parent="1" source="0Wyq9TKgrHh_EbbWzSWt-352" target="0Wyq9TKgrHh_EbbWzSWt-66" edge="1">
                    <mxGeometry relative="1" as="geometry">
                        <Array as="points">
                            <mxPoint x="3620" y="665"/>
                            <mxPoint x="3620" y="1010"/>
                            <mxPoint x="1490" y="1010"/>
                            <mxPoint x="1490" y="495"/>
                        </Array>
                    </mxGeometry>
                </mxCell>
                <mxCell id="0Wyq9TKgrHh_EbbWzSWt-357" style="edgeStyle=orthogonalEdgeStyle;rounded=0;orthogonalLoop=1;jettySize=auto;html=1;entryX=0;entryY=0.5;entryDx=0;entryDy=0;entryPerimeter=0;" parent="1" source="0Wyq9TKgrHh_EbbWzSWt-353" target="0Wyq9TKgrHh_EbbWzSWt-67" edge="1">
                    <mxGeometry relative="1" as="geometry">
                        <Array as="points">
                            <mxPoint x="3630" y="685"/>
                            <mxPoint x="3630" y="1020"/>
                            <mxPoint x="1480" y="1020"/>
                            <mxPoint x="1480" y="515"/>
                        </Array>
                    </mxGeometry>
                </mxCell>
                <mxCell id="0Wyq9TKgrHh_EbbWzSWt-358" style="edgeStyle=orthogonalEdgeStyle;rounded=0;orthogonalLoop=1;jettySize=auto;html=1;entryX=0;entryY=0.5;entryDx=0;entryDy=0;entryPerimeter=0;" parent="1" source="0Wyq9TKgrHh_EbbWzSWt-354" target="0Wyq9TKgrHh_EbbWzSWt-68" edge="1">
                    <mxGeometry relative="1" as="geometry">
                        <Array as="points">
                            <mxPoint x="3640" y="645"/>
                            <mxPoint x="3640" y="1030"/>
                            <mxPoint x="1470" y="1030"/>
                            <mxPoint x="1470" y="535"/>
                        </Array>
                    </mxGeometry>
                </mxCell>
                <mxCell id="0Wyq9TKgrHh_EbbWzSWt-361" style="edgeStyle=orthogonalEdgeStyle;rounded=0;orthogonalLoop=1;jettySize=auto;html=1;entryX=0;entryY=0.5;entryDx=0;entryDy=0;entryPerimeter=0;" parent="1" source="0Wyq9TKgrHh_EbbWzSWt-360" target="0Wyq9TKgrHh_EbbWzSWt-70" edge="1">
                    <mxGeometry relative="1" as="geometry">
                        <Array as="points">
                            <mxPoint x="3660" y="705"/>
                            <mxPoint x="3660" y="1050"/>
                            <mxPoint x="1450" y="1050"/>
                            <mxPoint x="1450" y="575"/>
                        </Array>
                    </mxGeometry>
                </mxCell>
                <mxCell id="0Wyq9TKgrHh_EbbWzSWt-300" value="&lt;b&gt;EX_MEM REGISTER&lt;br&gt;&lt;/b&gt;" style="rounded=1;whiteSpace=wrap;html=1;arcSize=8;" parent="1" vertex="1">
                    <mxGeometry x="3340" y="-505" width="260" height="1315" as="geometry"/>
                </mxCell>
                <mxCell id="0Wyq9TKgrHh_EbbWzSWt-301" value="flush" style="html=1;shadow=0;dashed=0;align=center;verticalAlign=bottom;shape=mxgraph.arrows2.arrow;dy=0;dx=10;notch=0;labelPosition=center;verticalLabelPosition=top;spacing=5;movable=1;resizable=1;rotatable=1;deletable=1;editable=1;locked=0;connectable=1;direction=north;" parent="1" vertex="1">
                    <mxGeometry x="3465" y="800" width="10" height="20" as="geometry"/>
                </mxCell>
                <mxCell id="0Wyq9TKgrHh_EbbWzSWt-325" value="&lt;b&gt;LSU&lt;/b&gt;" style="rounded=1;whiteSpace=wrap;html=1;" parent="1" vertex="1">
                    <mxGeometry x="3860" y="-80" width="420" height="180" as="geometry"/>
                </mxCell>
                <mxCell id="0Wyq9TKgrHh_EbbWzSWt-326" value="&lt;b&gt;RAM&lt;/b&gt;" style="rounded=1;whiteSpace=wrap;html=1;" parent="1" vertex="1">
                    <mxGeometry x="3830" y="320" width="550" height="120" as="geometry"/>
                </mxCell>
                <mxCell id="0Wyq9TKgrHh_EbbWzSWt-327" value="wr_sig" style="html=1;shadow=0;dashed=0;align=left;verticalAlign=middle;shape=mxgraph.arrows2.arrow;dy=0;dx=10;notch=0;labelPosition=right;verticalLabelPosition=middle;spacing=5;movable=1;resizable=1;rotatable=1;deletable=1;editable=1;locked=0;connectable=1;direction=east;" parent="1" vertex="1">
                    <mxGeometry x="3820" y="370" width="20" height="10" as="geometry"/>
                </mxCell>
                <mxCell id="0Wyq9TKgrHh_EbbWzSWt-328" value="&lt;div&gt;wr_data&lt;/div&gt;&lt;div&gt;&lt;br&gt;&lt;/div&gt;" style="html=1;shadow=0;dashed=0;align=center;verticalAlign=top;shape=mxgraph.arrows2.arrow;dy=0;dx=10;notch=0;labelPosition=center;verticalLabelPosition=bottom;spacing=5;movable=1;resizable=1;rotatable=1;deletable=1;editable=1;locked=0;connectable=1;direction=south;" parent="1" vertex="1">
                    <mxGeometry x="3960" y="310" width="10" height="20" as="geometry"/>
                </mxCell>
                <mxCell id="0Wyq9TKgrHh_EbbWzSWt-330" value="addr" style="html=1;shadow=0;dashed=0;align=center;verticalAlign=top;shape=mxgraph.arrows2.arrow;dy=0;dx=10;notch=0;labelPosition=center;verticalLabelPosition=bottom;spacing=5;movable=1;resizable=1;rotatable=1;deletable=1;editable=1;locked=0;connectable=1;direction=south;" parent="1" vertex="1">
                    <mxGeometry x="4020" y="310" width="10" height="20" as="geometry"/>
                </mxCell>
                <mxCell id="0Wyq9TKgrHh_EbbWzSWt-341" style="edgeStyle=orthogonalEdgeStyle;rounded=0;orthogonalLoop=1;jettySize=auto;html=1;entryX=0;entryY=0.5;entryDx=0;entryDy=0;entryPerimeter=0;" parent="1" source="0Wyq9TKgrHh_EbbWzSWt-331" target="0Wyq9TKgrHh_EbbWzSWt-335" edge="1">
                    <mxGeometry relative="1" as="geometry"/>
                </mxCell>
                <mxCell id="0Wyq9TKgrHh_EbbWzSWt-331" value="rd_data" style="html=1;shadow=0;dashed=0;align=center;verticalAlign=top;shape=mxgraph.arrows2.arrow;dy=0;dx=10;notch=0;labelPosition=center;verticalLabelPosition=bottom;spacing=5;movable=1;resizable=1;rotatable=1;deletable=1;editable=1;locked=0;connectable=1;direction=north;" parent="1" vertex="1">
                    <mxGeometry x="4230" y="310" width="10" height="20" as="geometry"/>
                </mxCell>
                <mxCell id="0Wyq9TKgrHh_EbbWzSWt-332" value="lsu_op" style="html=1;shadow=0;dashed=0;align=left;verticalAlign=middle;shape=mxgraph.arrows2.arrow;dy=0;dx=10;notch=0;labelPosition=right;verticalLabelPosition=middle;spacing=5;movable=1;resizable=1;rotatable=1;deletable=1;editable=1;locked=0;connectable=1;direction=east;" parent="1" vertex="1">
                    <mxGeometry x="3855" y="-50" width="20" height="10" as="geometry"/>
                </mxCell>
                <mxCell id="0Wyq9TKgrHh_EbbWzSWt-333" value="addr" style="html=1;shadow=0;dashed=0;align=left;verticalAlign=middle;shape=mxgraph.arrows2.arrow;dy=0;dx=10;notch=0;labelPosition=right;verticalLabelPosition=middle;spacing=5;movable=1;resizable=1;rotatable=1;deletable=1;editable=1;locked=0;connectable=1;direction=east;" parent="1" vertex="1">
                    <mxGeometry x="3855" y="-30" width="20" height="10" as="geometry"/>
                </mxCell>
                <mxCell id="0Wyq9TKgrHh_EbbWzSWt-334" value="wr_data" style="html=1;shadow=0;dashed=0;align=left;verticalAlign=middle;shape=mxgraph.arrows2.arrow;dy=0;dx=10;notch=0;labelPosition=right;verticalLabelPosition=middle;spacing=5;movable=1;resizable=1;rotatable=1;deletable=1;editable=1;locked=0;connectable=1;direction=east;" parent="1" vertex="1">
                    <mxGeometry x="3855" y="-10" width="20" height="10" as="geometry"/>
                </mxCell>
                <mxCell id="0Wyq9TKgrHh_EbbWzSWt-335" value="mem_rd_data" style="html=1;shadow=0;dashed=0;align=center;verticalAlign=bottom;shape=mxgraph.arrows2.arrow;dy=0;dx=10;notch=0;labelPosition=center;verticalLabelPosition=top;spacing=5;movable=1;resizable=1;rotatable=1;deletable=1;editable=1;locked=0;connectable=1;direction=north;" parent="1" vertex="1">
                    <mxGeometry x="4230" y="90" width="10" height="20" as="geometry"/>
                </mxCell>
                <mxCell id="0Wyq9TKgrHh_EbbWzSWt-366" style="edgeStyle=orthogonalEdgeStyle;rounded=0;orthogonalLoop=1;jettySize=auto;html=1;entryX=0;entryY=0.5;entryDx=0;entryDy=0;entryPerimeter=0;" parent="1" source="0Wyq9TKgrHh_EbbWzSWt-336" target="0Wyq9TKgrHh_EbbWzSWt-365" edge="1">
                    <mxGeometry relative="1" as="geometry"/>
                </mxCell>
                <mxCell id="0Wyq9TKgrHh_EbbWzSWt-336" value="rd_data" style="html=1;shadow=0;dashed=0;align=right;verticalAlign=middle;shape=mxgraph.arrows2.arrow;dy=0;dx=10;notch=0;labelPosition=left;verticalLabelPosition=middle;spacing=5;movable=1;resizable=1;rotatable=1;deletable=1;editable=1;locked=0;connectable=1;direction=east;" parent="1" vertex="1">
                    <mxGeometry x="4270" y="-50" width="20" height="10" as="geometry"/>
                </mxCell>
                <mxCell id="0Wyq9TKgrHh_EbbWzSWt-340" style="edgeStyle=orthogonalEdgeStyle;rounded=0;orthogonalLoop=1;jettySize=auto;html=1;entryX=0;entryY=0.5;entryDx=0;entryDy=0;entryPerimeter=0;" parent="1" source="0Wyq9TKgrHh_EbbWzSWt-337" target="0Wyq9TKgrHh_EbbWzSWt-330" edge="1">
                    <mxGeometry relative="1" as="geometry"/>
                </mxCell>
                <mxCell id="0Wyq9TKgrHh_EbbWzSWt-337" value="mem_addr" style="html=1;shadow=0;dashed=0;align=center;verticalAlign=bottom;shape=mxgraph.arrows2.arrow;dy=0;dx=10;notch=0;labelPosition=center;verticalLabelPosition=top;spacing=5;movable=1;resizable=1;rotatable=1;deletable=1;editable=1;locked=0;connectable=1;direction=south;" parent="1" vertex="1">
                    <mxGeometry x="4020" y="90" width="10" height="20" as="geometry"/>
                </mxCell>
                <mxCell id="0Wyq9TKgrHh_EbbWzSWt-339" style="edgeStyle=orthogonalEdgeStyle;rounded=0;orthogonalLoop=1;jettySize=auto;html=1;entryX=-0.173;entryY=0.555;entryDx=0;entryDy=0;entryPerimeter=0;" parent="1" source="0Wyq9TKgrHh_EbbWzSWt-338" target="0Wyq9TKgrHh_EbbWzSWt-328" edge="1">
                    <mxGeometry relative="1" as="geometry"/>
                </mxCell>
                <mxCell id="0Wyq9TKgrHh_EbbWzSWt-338" value="wr_data" style="html=1;shadow=0;dashed=0;align=center;verticalAlign=bottom;shape=mxgraph.arrows2.arrow;dy=0;dx=10;notch=0;labelPosition=center;verticalLabelPosition=top;spacing=5;movable=1;resizable=1;rotatable=1;deletable=1;editable=1;locked=0;connectable=1;direction=south;" parent="1" vertex="1">
                    <mxGeometry x="3960" y="90" width="10" height="20" as="geometry"/>
                </mxCell>
                <mxCell id="0Wyq9TKgrHh_EbbWzSWt-343" style="edgeStyle=orthogonalEdgeStyle;rounded=0;orthogonalLoop=1;jettySize=auto;html=1;" parent="1" source="0Wyq9TKgrHh_EbbWzSWt-342" target="0Wyq9TKgrHh_EbbWzSWt-332" edge="1">
                    <mxGeometry relative="1" as="geometry"/>
                </mxCell>
                <mxCell id="0Wyq9TKgrHh_EbbWzSWt-342" value="lsu_op" style="html=1;shadow=0;dashed=0;align=right;verticalAlign=middle;shape=mxgraph.arrows2.arrow;dy=0;dx=10;notch=0;labelPosition=left;verticalLabelPosition=middle;spacing=5;movable=1;resizable=1;rotatable=1;deletable=1;editable=1;locked=0;connectable=1;direction=east;" parent="1" vertex="1">
                    <mxGeometry x="3590" y="-50" width="20" height="10" as="geometry"/>
                </mxCell>
                <mxCell id="0Wyq9TKgrHh_EbbWzSWt-345" style="edgeStyle=orthogonalEdgeStyle;rounded=0;orthogonalLoop=1;jettySize=auto;html=1;entryX=0;entryY=0.5;entryDx=0;entryDy=0;entryPerimeter=0;" parent="1" source="0Wyq9TKgrHh_EbbWzSWt-344" target="0Wyq9TKgrHh_EbbWzSWt-327" edge="1">
                    <mxGeometry relative="1" as="geometry"/>
                </mxCell>
                <mxCell id="0Wyq9TKgrHh_EbbWzSWt-344" value="mem_wr_sig" style="html=1;shadow=0;dashed=0;align=right;verticalAlign=middle;shape=mxgraph.arrows2.arrow;dy=0;dx=10;notch=0;labelPosition=left;verticalLabelPosition=middle;spacing=5;movable=1;resizable=1;rotatable=1;deletable=1;editable=1;locked=0;connectable=1;" parent="1" vertex="1">
                    <mxGeometry x="3590" y="370" width="20" height="10" as="geometry"/>
                </mxCell>
                <mxCell id="0Wyq9TKgrHh_EbbWzSWt-349" style="edgeStyle=orthogonalEdgeStyle;rounded=0;orthogonalLoop=1;jettySize=auto;html=1;entryX=0;entryY=0.5;entryDx=0;entryDy=0;entryPerimeter=0;" parent="1" source="0Wyq9TKgrHh_EbbWzSWt-346" target="0Wyq9TKgrHh_EbbWzSWt-333" edge="1">
                    <mxGeometry relative="1" as="geometry"/>
                </mxCell>
                <mxCell id="0Wyq9TKgrHh_EbbWzSWt-379" style="edgeStyle=orthogonalEdgeStyle;rounded=0;orthogonalLoop=1;jettySize=auto;html=1;entryX=0;entryY=0.5;entryDx=0;entryDy=0;entryPerimeter=0;" parent="1" source="0Wyq9TKgrHh_EbbWzSWt-346" target="0Wyq9TKgrHh_EbbWzSWt-378" edge="1">
                    <mxGeometry relative="1" as="geometry">
                        <Array as="points">
                            <mxPoint x="3650" y="-25"/>
                            <mxPoint x="3650" y="-115"/>
                        </Array>
                    </mxGeometry>
                </mxCell>
                <mxCell id="0Wyq9TKgrHh_EbbWzSWt-346" value="alu_result" style="html=1;shadow=0;dashed=0;align=right;verticalAlign=middle;shape=mxgraph.arrows2.arrow;dy=0;dx=10;notch=0;labelPosition=left;verticalLabelPosition=middle;spacing=5;movable=1;resizable=1;rotatable=1;deletable=1;editable=1;locked=0;connectable=1;direction=east;" parent="1" vertex="1">
                    <mxGeometry x="3590" y="-30" width="20" height="10" as="geometry"/>
                </mxCell>
                <mxCell id="0Wyq9TKgrHh_EbbWzSWt-351" style="edgeStyle=orthogonalEdgeStyle;rounded=0;orthogonalLoop=1;jettySize=auto;html=1;entryX=0;entryY=0.5;entryDx=0;entryDy=0;entryPerimeter=0;" parent="1" source="0Wyq9TKgrHh_EbbWzSWt-350" target="0Wyq9TKgrHh_EbbWzSWt-334" edge="1">
                    <mxGeometry relative="1" as="geometry"/>
                </mxCell>
                <mxCell id="0Wyq9TKgrHh_EbbWzSWt-350" value="rs2" style="html=1;shadow=0;dashed=0;align=right;verticalAlign=middle;shape=mxgraph.arrows2.arrow;dy=0;dx=10;notch=0;labelPosition=left;verticalLabelPosition=middle;spacing=5;movable=1;resizable=1;rotatable=1;deletable=1;editable=1;locked=0;connectable=1;direction=east;" parent="1" vertex="1">
                    <mxGeometry x="3590" y="-10" width="20" height="10" as="geometry"/>
                </mxCell>
                <mxCell id="0Wyq9TKgrHh_EbbWzSWt-375" style="edgeStyle=orthogonalEdgeStyle;rounded=0;orthogonalLoop=1;jettySize=auto;html=1;entryX=0;entryY=0.5;entryDx=0;entryDy=0;entryPerimeter=0;" parent="1" source="0Wyq9TKgrHh_EbbWzSWt-352" target="0Wyq9TKgrHh_EbbWzSWt-374" edge="1">
                    <mxGeometry relative="1" as="geometry"/>
                </mxCell>
                <mxCell id="0Wyq9TKgrHh_EbbWzSWt-352" value="reg_wr_addr" style="html=1;shadow=0;dashed=0;align=right;verticalAlign=middle;shape=mxgraph.arrows2.arrow;dy=0;dx=10;notch=0;labelPosition=left;verticalLabelPosition=middle;spacing=5;movable=1;resizable=1;rotatable=1;deletable=1;editable=1;locked=0;connectable=1;" parent="1" vertex="1">
                    <mxGeometry x="3590" y="660" width="20" height="10" as="geometry"/>
                </mxCell>
                <mxCell id="0Wyq9TKgrHh_EbbWzSWt-377" style="edgeStyle=orthogonalEdgeStyle;rounded=0;orthogonalLoop=1;jettySize=auto;html=1;entryX=0;entryY=0.5;entryDx=0;entryDy=0;entryPerimeter=0;" parent="1" source="0Wyq9TKgrHh_EbbWzSWt-353" target="0Wyq9TKgrHh_EbbWzSWt-376" edge="1">
                    <mxGeometry relative="1" as="geometry"/>
                </mxCell>
                <mxCell id="0Wyq9TKgrHh_EbbWzSWt-353" value="&lt;div&gt;reg_wr_sig&lt;/div&gt;" style="html=1;shadow=0;dashed=0;align=right;verticalAlign=middle;shape=mxgraph.arrows2.arrow;dy=0;dx=10;notch=0;labelPosition=left;verticalLabelPosition=middle;spacing=5;movable=1;resizable=1;rotatable=1;deletable=1;editable=1;locked=0;connectable=1;" parent="1" vertex="1">
                    <mxGeometry x="3590" y="680" width="20" height="10" as="geometry"/>
                </mxCell>
                <mxCell id="0Wyq9TKgrHh_EbbWzSWt-369" style="edgeStyle=orthogonalEdgeStyle;rounded=0;orthogonalLoop=1;jettySize=auto;html=1;entryX=0;entryY=0.5;entryDx=0;entryDy=0;entryPerimeter=0;" parent="1" source="0Wyq9TKgrHh_EbbWzSWt-354" target="0Wyq9TKgrHh_EbbWzSWt-368" edge="1">
                    <mxGeometry relative="1" as="geometry"/>
                </mxCell>
                <mxCell id="0Wyq9TKgrHh_EbbWzSWt-354" value="data_dest" style="html=1;shadow=0;dashed=0;align=right;verticalAlign=middle;shape=mxgraph.arrows2.arrow;dy=0;dx=10;notch=0;labelPosition=left;verticalLabelPosition=middle;spacing=5;movable=1;resizable=1;rotatable=1;deletable=1;editable=1;locked=0;connectable=1;" parent="1" vertex="1">
                    <mxGeometry x="3590" y="640" width="20" height="10" as="geometry"/>
                </mxCell>
                <mxCell id="0Wyq9TKgrHh_EbbWzSWt-373" style="edgeStyle=orthogonalEdgeStyle;rounded=0;orthogonalLoop=1;jettySize=auto;html=1;entryX=0;entryY=0.5;entryDx=0;entryDy=0;entryPerimeter=0;" parent="1" source="0Wyq9TKgrHh_EbbWzSWt-360" target="0Wyq9TKgrHh_EbbWzSWt-370" edge="1">
                    <mxGeometry relative="1" as="geometry"/>
                </mxCell>
                <mxCell id="0Wyq9TKgrHh_EbbWzSWt-360" value="pc_plus4" style="html=1;shadow=0;dashed=0;align=right;verticalAlign=middle;shape=mxgraph.arrows2.arrow;dy=0;dx=10;notch=0;labelPosition=left;verticalLabelPosition=middle;spacing=5;movable=1;resizable=1;rotatable=1;deletable=1;editable=1;locked=0;connectable=1;" parent="1" vertex="1">
                    <mxGeometry x="3590" y="700" width="20" height="10" as="geometry"/>
                </mxCell>
                <mxCell id="0Wyq9TKgrHh_EbbWzSWt-363" value="MEM_WB REGISTER" style="rounded=1;whiteSpace=wrap;html=1;arcSize=8;" parent="1" vertex="1">
                    <mxGeometry x="4600" y="-530" width="220" height="1360" as="geometry"/>
                </mxCell>
                <mxCell id="0Wyq9TKgrHh_EbbWzSWt-312" value="rs2" style="html=1;shadow=0;dashed=0;align=left;verticalAlign=middle;shape=mxgraph.arrows2.arrow;dy=0;dx=10;notch=0;labelPosition=right;verticalLabelPosition=middle;spacing=5;movable=1;resizable=1;rotatable=1;deletable=1;editable=1;locked=0;connectable=1;" parent="1" vertex="1">
                    <mxGeometry x="3330" y="720" width="20" height="10" as="geometry"/>
                </mxCell>
                <mxCell id="0Wyq9TKgrHh_EbbWzSWt-315" value="lsu_op" style="html=1;shadow=0;dashed=0;align=left;verticalAlign=middle;shape=mxgraph.arrows2.arrow;dy=0;dx=10;notch=0;labelPosition=right;verticalLabelPosition=middle;spacing=5;movable=1;resizable=1;rotatable=1;deletable=1;editable=1;locked=0;connectable=1;" parent="1" vertex="1">
                    <mxGeometry x="3330" y="740" width="20" height="10" as="geometry"/>
                </mxCell>
                <mxCell id="0Wyq9TKgrHh_EbbWzSWt-317" value="data_dest" style="html=1;shadow=0;dashed=0;align=left;verticalAlign=middle;shape=mxgraph.arrows2.arrow;dy=0;dx=10;notch=0;labelPosition=right;verticalLabelPosition=middle;spacing=5;movable=1;resizable=1;rotatable=1;deletable=1;editable=1;locked=0;connectable=1;" parent="1" vertex="1">
                    <mxGeometry x="3330" y="640" width="20" height="10" as="geometry"/>
                </mxCell>
                <mxCell id="0Wyq9TKgrHh_EbbWzSWt-319" value="reg_wr_addr" style="html=1;shadow=0;dashed=0;align=left;verticalAlign=middle;shape=mxgraph.arrows2.arrow;dy=0;dx=10;notch=0;labelPosition=right;verticalLabelPosition=middle;spacing=5;movable=1;resizable=1;rotatable=1;deletable=1;editable=1;locked=0;connectable=1;" parent="1" vertex="1">
                    <mxGeometry x="3330" y="660" width="20" height="10" as="geometry"/>
                </mxCell>
                <mxCell id="0Wyq9TKgrHh_EbbWzSWt-321" value="&lt;div&gt;reg_wr_sig&lt;/div&gt;" style="html=1;shadow=0;dashed=0;align=left;verticalAlign=middle;shape=mxgraph.arrows2.arrow;dy=0;dx=10;notch=0;labelPosition=right;verticalLabelPosition=middle;spacing=5;movable=1;resizable=1;rotatable=1;deletable=1;editable=1;locked=0;connectable=1;" parent="1" vertex="1">
                    <mxGeometry x="3330" y="680" width="20" height="10" as="geometry"/>
                </mxCell>
                <mxCell id="0Wyq9TKgrHh_EbbWzSWt-323" value="mem_wr_sig" style="html=1;shadow=0;dashed=0;align=left;verticalAlign=middle;shape=mxgraph.arrows2.arrow;dy=0;dx=10;notch=0;labelPosition=right;verticalLabelPosition=middle;spacing=5;movable=1;resizable=1;rotatable=1;deletable=1;editable=1;locked=0;connectable=1;" parent="1" vertex="1">
                    <mxGeometry x="3330" y="700" width="20" height="10" as="geometry"/>
                </mxCell>
                <mxCell id="0Wyq9TKgrHh_EbbWzSWt-308" value="&lt;div&gt;alu_result&lt;/div&gt;" style="html=1;shadow=0;dashed=0;align=left;verticalAlign=middle;shape=mxgraph.arrows2.arrow;dy=0;dx=10;notch=0;labelPosition=right;verticalLabelPosition=middle;spacing=5;movable=1;resizable=1;rotatable=1;deletable=1;editable=1;locked=0;connectable=1;" parent="1" vertex="1">
                    <mxGeometry x="3330" y="-180" width="20" height="10" as="geometry"/>
                </mxCell>
                <mxCell id="0Wyq9TKgrHh_EbbWzSWt-311" style="edgeStyle=orthogonalEdgeStyle;rounded=0;orthogonalLoop=1;jettySize=auto;html=1;entryX=0;entryY=0.5;entryDx=0;entryDy=0;entryPerimeter=0;" parent="1" source="0Wyq9TKgrHh_EbbWzSWt-291" target="0Wyq9TKgrHh_EbbWzSWt-310" edge="1">
                    <mxGeometry relative="1" as="geometry"/>
                </mxCell>
                <mxCell id="0Wyq9TKgrHh_EbbWzSWt-310" value="pc_plus4" style="html=1;shadow=0;dashed=0;align=left;verticalAlign=middle;shape=mxgraph.arrows2.arrow;dy=0;dx=10;notch=0;labelPosition=right;verticalLabelPosition=middle;spacing=5;movable=1;resizable=1;rotatable=1;deletable=1;editable=1;locked=0;connectable=1;" parent="1" vertex="1">
                    <mxGeometry x="3330" y="230" width="20" height="10" as="geometry"/>
                </mxCell>
                <mxCell id="0Wyq9TKgrHh_EbbWzSWt-365" value="rd_data" style="html=1;shadow=0;dashed=0;align=left;verticalAlign=middle;shape=mxgraph.arrows2.arrow;dy=0;dx=10;notch=0;labelPosition=right;verticalLabelPosition=middle;spacing=5;movable=1;resizable=1;rotatable=1;deletable=1;editable=1;locked=0;connectable=1;direction=east;" parent="1" vertex="1">
                    <mxGeometry x="4590" y="-50" width="20" height="10" as="geometry"/>
                </mxCell>
                <mxCell id="0Wyq9TKgrHh_EbbWzSWt-368" value="data_dest" style="html=1;shadow=0;dashed=0;align=left;verticalAlign=middle;shape=mxgraph.arrows2.arrow;dy=0;dx=10;notch=0;labelPosition=right;verticalLabelPosition=middle;spacing=5;movable=1;resizable=1;rotatable=1;deletable=1;editable=1;locked=0;connectable=1;" parent="1" vertex="1">
                    <mxGeometry x="4590" y="640" width="20" height="10" as="geometry"/>
                </mxCell>
                <mxCell id="0Wyq9TKgrHh_EbbWzSWt-370" value="pc_plus4" style="html=1;shadow=0;dashed=0;align=left;verticalAlign=middle;shape=mxgraph.arrows2.arrow;dy=0;dx=10;notch=0;labelPosition=right;verticalLabelPosition=middle;spacing=5;movable=1;resizable=1;rotatable=1;deletable=1;editable=1;locked=0;connectable=1;" parent="1" vertex="1">
                    <mxGeometry x="4590" y="700" width="20" height="10" as="geometry"/>
                </mxCell>
                <mxCell id="0Wyq9TKgrHh_EbbWzSWt-374" value="reg_wr_addr" style="html=1;shadow=0;dashed=0;align=left;verticalAlign=middle;shape=mxgraph.arrows2.arrow;dy=0;dx=10;notch=0;labelPosition=right;verticalLabelPosition=middle;spacing=5;movable=1;resizable=1;rotatable=1;deletable=1;editable=1;locked=0;connectable=1;" parent="1" vertex="1">
                    <mxGeometry x="4590" y="660" width="20" height="10" as="geometry"/>
                </mxCell>
                <mxCell id="0Wyq9TKgrHh_EbbWzSWt-376" value="&lt;div&gt;reg_wr_sig&lt;/div&gt;" style="html=1;shadow=0;dashed=0;align=left;verticalAlign=middle;shape=mxgraph.arrows2.arrow;dy=0;dx=10;notch=0;labelPosition=right;verticalLabelPosition=middle;spacing=5;movable=1;resizable=1;rotatable=1;deletable=1;editable=1;locked=0;connectable=1;" parent="1" vertex="1">
                    <mxGeometry x="4590" y="680" width="20" height="10" as="geometry"/>
                </mxCell>
                <mxCell id="0Wyq9TKgrHh_EbbWzSWt-378" value="alu_result" style="html=1;shadow=0;dashed=0;align=left;verticalAlign=middle;shape=mxgraph.arrows2.arrow;dy=0;dx=10;notch=0;labelPosition=right;verticalLabelPosition=middle;spacing=5;movable=1;resizable=1;rotatable=1;deletable=1;editable=1;locked=0;connectable=1;direction=east;" parent="1" vertex="1">
                    <mxGeometry x="4590" y="-120" width="20" height="10" as="geometry"/>
                </mxCell>
                <mxCell id="0Wyq9TKgrHh_EbbWzSWt-397" style="edgeStyle=orthogonalEdgeStyle;rounded=0;orthogonalLoop=1;jettySize=auto;html=1;entryX=0;entryY=0.5;entryDx=0;entryDy=0;entryPerimeter=0;exitX=0;exitY=0.5;exitDx=0;exitDy=0;" parent="1" source="0Wyq9TKgrHh_EbbWzSWt-380" target="0Wyq9TKgrHh_EbbWzSWt-46" edge="1">
                    <mxGeometry relative="1" as="geometry">
                        <Array as="points">
                            <mxPoint x="5310" y="215"/>
                            <mxPoint x="5310" y="1150"/>
                            <mxPoint x="1125" y="1150"/>
                        </Array>
                    </mxGeometry>
                </mxCell>
                <mxCell id="0Wyq9TKgrHh_EbbWzSWt-380" value="MUX" style="shape=dataStorage;whiteSpace=wrap;html=1;fixedSize=1;direction=west;" parent="1" vertex="1">
                    <mxGeometry x="5160" y="175" width="100" height="80" as="geometry"/>
                </mxCell>
                <mxCell id="0Wyq9TKgrHh_EbbWzSWt-391" style="edgeStyle=orthogonalEdgeStyle;rounded=0;orthogonalLoop=1;jettySize=auto;html=1;entryX=0.5;entryY=1;entryDx=0;entryDy=0;" parent="1" source="0Wyq9TKgrHh_EbbWzSWt-381" target="0Wyq9TKgrHh_EbbWzSWt-380" edge="1">
                    <mxGeometry relative="1" as="geometry"/>
                </mxCell>
                <mxCell id="0Wyq9TKgrHh_EbbWzSWt-400" style="edgeStyle=orthogonalEdgeStyle;rounded=0;orthogonalLoop=1;jettySize=auto;html=1;entryX=0;entryY=0.5;entryDx=0;entryDy=0;entryPerimeter=0;" parent="1" source="0Wyq9TKgrHh_EbbWzSWt-381" target="0Wyq9TKgrHh_EbbWzSWt-74" edge="1">
                    <mxGeometry relative="1" as="geometry">
                        <Array as="points">
                            <mxPoint x="4890" y="115"/>
                            <mxPoint x="4890" y="1090"/>
                            <mxPoint x="1410" y="1090"/>
                            <mxPoint x="1410" y="675"/>
                        </Array>
                    </mxGeometry>
                </mxCell>
                <mxCell id="0Wyq9TKgrHh_EbbWzSWt-381" value="data_dest" style="html=1;shadow=0;dashed=0;align=right;verticalAlign=middle;shape=mxgraph.arrows2.arrow;dy=0;dx=10;notch=0;labelPosition=left;verticalLabelPosition=middle;spacing=5;movable=1;resizable=1;rotatable=1;deletable=1;editable=1;locked=0;connectable=1;" parent="1" vertex="1">
                    <mxGeometry x="4810" y="110" width="20" height="10" as="geometry"/>
                </mxCell>
                <mxCell id="0Wyq9TKgrHh_EbbWzSWt-390" style="edgeStyle=orthogonalEdgeStyle;rounded=0;orthogonalLoop=1;jettySize=auto;html=1;entryX=1;entryY=0.75;entryDx=0;entryDy=0;" parent="1" source="0Wyq9TKgrHh_EbbWzSWt-382" target="0Wyq9TKgrHh_EbbWzSWt-380" edge="1">
                    <mxGeometry relative="1" as="geometry"/>
                </mxCell>
                <mxCell id="0Wyq9TKgrHh_EbbWzSWt-403" style="edgeStyle=orthogonalEdgeStyle;rounded=0;orthogonalLoop=1;jettySize=auto;html=1;entryX=0;entryY=0.5;entryDx=0;entryDy=0;entryPerimeter=0;" parent="1" source="0Wyq9TKgrHh_EbbWzSWt-382" target="0Wyq9TKgrHh_EbbWzSWt-76" edge="1">
                    <mxGeometry relative="1" as="geometry">
                        <Array as="points">
                            <mxPoint x="4910" y="195"/>
                            <mxPoint x="4910" y="1110"/>
                            <mxPoint x="1390" y="1110"/>
                            <mxPoint x="1390" y="715"/>
                        </Array>
                    </mxGeometry>
                </mxCell>
                <mxCell id="0Wyq9TKgrHh_EbbWzSWt-382" value="pc_plus4" style="html=1;shadow=0;dashed=0;align=right;verticalAlign=middle;shape=mxgraph.arrows2.arrow;dy=0;dx=10;notch=0;labelPosition=left;verticalLabelPosition=middle;spacing=5;movable=1;resizable=1;rotatable=1;deletable=1;editable=1;locked=0;connectable=1;" parent="1" vertex="1">
                    <mxGeometry x="4810" y="190" width="20" height="10" as="geometry"/>
                </mxCell>
                <mxCell id="0Wyq9TKgrHh_EbbWzSWt-388" style="edgeStyle=orthogonalEdgeStyle;rounded=0;orthogonalLoop=1;jettySize=auto;html=1;entryX=1;entryY=0.5;entryDx=0;entryDy=0;" parent="1" source="0Wyq9TKgrHh_EbbWzSWt-384" target="0Wyq9TKgrHh_EbbWzSWt-380" edge="1">
                    <mxGeometry relative="1" as="geometry"/>
                </mxCell>
                <mxCell id="0Wyq9TKgrHh_EbbWzSWt-404" style="edgeStyle=orthogonalEdgeStyle;rounded=0;orthogonalLoop=1;jettySize=auto;html=1;entryX=0;entryY=0.5;entryDx=0;entryDy=0;entryPerimeter=0;" parent="1" source="0Wyq9TKgrHh_EbbWzSWt-384" target="0Wyq9TKgrHh_EbbWzSWt-77" edge="1">
                    <mxGeometry relative="1" as="geometry">
                        <Array as="points">
                            <mxPoint x="4920" y="215"/>
                            <mxPoint x="4920" y="1120"/>
                            <mxPoint x="1380" y="1120"/>
                            <mxPoint x="1380" y="735"/>
                        </Array>
                    </mxGeometry>
                </mxCell>
                <mxCell id="0Wyq9TKgrHh_EbbWzSWt-384" value="rd_data" style="html=1;shadow=0;dashed=0;align=right;verticalAlign=middle;shape=mxgraph.arrows2.arrow;dy=0;dx=10;notch=0;labelPosition=left;verticalLabelPosition=middle;spacing=5;movable=1;resizable=1;rotatable=1;deletable=1;editable=1;locked=0;connectable=1;direction=east;" parent="1" vertex="1">
                    <mxGeometry x="4810" y="210" width="20" height="10" as="geometry"/>
                </mxCell>
                <mxCell id="0Wyq9TKgrHh_EbbWzSWt-387" style="edgeStyle=orthogonalEdgeStyle;rounded=0;orthogonalLoop=1;jettySize=auto;html=1;entryX=1;entryY=0.25;entryDx=0;entryDy=0;" parent="1" source="0Wyq9TKgrHh_EbbWzSWt-386" target="0Wyq9TKgrHh_EbbWzSWt-380" edge="1">
                    <mxGeometry relative="1" as="geometry"/>
                </mxCell>
                <mxCell id="0Wyq9TKgrHh_EbbWzSWt-402" style="edgeStyle=orthogonalEdgeStyle;rounded=0;orthogonalLoop=1;jettySize=auto;html=1;entryX=0;entryY=0.5;entryDx=0;entryDy=0;entryPerimeter=0;" parent="1" source="0Wyq9TKgrHh_EbbWzSWt-386" target="0Wyq9TKgrHh_EbbWzSWt-75" edge="1">
                    <mxGeometry relative="1" as="geometry">
                        <Array as="points">
                            <mxPoint x="4900" y="235"/>
                            <mxPoint x="4900" y="1100"/>
                            <mxPoint x="1400" y="1100"/>
                            <mxPoint x="1400" y="695"/>
                        </Array>
                    </mxGeometry>
                </mxCell>
                <mxCell id="0Wyq9TKgrHh_EbbWzSWt-386" value="alu_result" style="html=1;shadow=0;dashed=0;align=right;verticalAlign=middle;shape=mxgraph.arrows2.arrow;dy=0;dx=10;notch=0;labelPosition=left;verticalLabelPosition=middle;spacing=5;movable=1;resizable=1;rotatable=1;deletable=1;editable=1;locked=0;connectable=1;direction=east;" parent="1" vertex="1">
                    <mxGeometry x="4810" y="230" width="20" height="10" as="geometry"/>
                </mxCell>
                <mxCell id="0Wyq9TKgrHh_EbbWzSWt-394" style="edgeStyle=orthogonalEdgeStyle;rounded=0;orthogonalLoop=1;jettySize=auto;html=1;entryX=0;entryY=0.5;entryDx=0;entryDy=0;entryPerimeter=0;" parent="1" source="0Wyq9TKgrHh_EbbWzSWt-392" target="0Wyq9TKgrHh_EbbWzSWt-39" edge="1">
                    <mxGeometry relative="1" as="geometry">
                        <Array as="points">
                            <mxPoint x="4850" y="665"/>
                            <mxPoint x="4850" y="1140"/>
                            <mxPoint x="1245" y="1140"/>
                        </Array>
                    </mxGeometry>
                </mxCell>
                <mxCell id="0Wyq9TKgrHh_EbbWzSWt-398" style="edgeStyle=orthogonalEdgeStyle;rounded=0;orthogonalLoop=1;jettySize=auto;html=1;entryX=0;entryY=0.5;entryDx=0;entryDy=0;entryPerimeter=0;" parent="1" source="0Wyq9TKgrHh_EbbWzSWt-392" target="0Wyq9TKgrHh_EbbWzSWt-72" edge="1">
                    <mxGeometry relative="1" as="geometry">
                        <Array as="points">
                            <mxPoint x="4870" y="665"/>
                            <mxPoint x="4870" y="1070"/>
                            <mxPoint x="1430" y="1070"/>
                            <mxPoint x="1430" y="635"/>
                        </Array>
                    </mxGeometry>
                </mxCell>
                <mxCell id="0Wyq9TKgrHh_EbbWzSWt-392" value="reg_wr_addr" style="html=1;shadow=0;dashed=0;align=right;verticalAlign=middle;shape=mxgraph.arrows2.arrow;dy=0;dx=10;notch=0;labelPosition=left;verticalLabelPosition=middle;spacing=5;movable=1;resizable=1;rotatable=1;deletable=1;editable=1;locked=0;connectable=1;" parent="1" vertex="1">
                    <mxGeometry x="4810" y="660" width="20" height="10" as="geometry"/>
                </mxCell>
                <mxCell id="0Wyq9TKgrHh_EbbWzSWt-396" style="edgeStyle=orthogonalEdgeStyle;rounded=0;orthogonalLoop=1;jettySize=auto;html=1;entryX=0;entryY=0.5;entryDx=0;entryDy=0;entryPerimeter=0;" parent="1" source="0Wyq9TKgrHh_EbbWzSWt-393" target="0Wyq9TKgrHh_EbbWzSWt-40" edge="1">
                    <mxGeometry relative="1" as="geometry">
                        <Array as="points">
                            <mxPoint x="4860" y="685"/>
                            <mxPoint x="4860" y="1130"/>
                            <mxPoint x="1185" y="1130"/>
                        </Array>
                    </mxGeometry>
                </mxCell>
                <mxCell id="0Wyq9TKgrHh_EbbWzSWt-399" style="edgeStyle=orthogonalEdgeStyle;rounded=0;orthogonalLoop=1;jettySize=auto;html=1;entryX=0;entryY=0.5;entryDx=0;entryDy=0;entryPerimeter=0;" parent="1" source="0Wyq9TKgrHh_EbbWzSWt-393" target="0Wyq9TKgrHh_EbbWzSWt-73" edge="1">
                    <mxGeometry relative="1" as="geometry">
                        <Array as="points">
                            <mxPoint x="4880" y="685"/>
                            <mxPoint x="4880" y="1080"/>
                            <mxPoint x="1420" y="1080"/>
                            <mxPoint x="1420" y="655"/>
                        </Array>
                    </mxGeometry>
                </mxCell>
                <mxCell id="0Wyq9TKgrHh_EbbWzSWt-393" value="&lt;div&gt;reg_wr_sig&lt;/div&gt;" style="html=1;shadow=0;dashed=0;align=right;verticalAlign=middle;shape=mxgraph.arrows2.arrow;dy=0;dx=10;notch=0;labelPosition=left;verticalLabelPosition=middle;spacing=5;movable=1;resizable=1;rotatable=1;deletable=1;editable=1;locked=0;connectable=1;" parent="1" vertex="1">
                    <mxGeometry x="4810" y="680" width="20" height="10" as="geometry"/>
                </mxCell>
            </root>
        </mxGraphModel>
    </diagram>
</mxfile>